<?xml version="1.0" encoding="UTF-8"?>
<svg version="1.1" xmlns="http://www.w3.org/2000/svg" width="600" height="180">
<path d="M0 0 C198 0 396 0 600 0 C600 59.4 600 118.8 600 180 C402 180 204 180 0 180 C0 120.6 0 61.2 0 0 Z " fill="#000001" transform="translate(0,0)"/>
<path d="M0 0 C2.01953588 1.47159979 3.95683048 3.01155448 5.890625 4.59375 C6.55964844 5.10550781 7.22867188 5.61726563 7.91796875 6.14453125 C13.67662776 10.77577525 17.25399357 16.21109076 20.890625 22.59375 C21.49390625 23.6146875 21.49390625 23.6146875 22.109375 24.65625 C29.48537117 38.06715212 29.82382537 54.7579284 26.390625 69.40625 C22.94443918 80.65489176 16.7658301 91.71856801 7.890625 99.59375 C7.230625 99.59375 6.570625 99.59375 5.890625 99.59375 C5.890625 100.25375 5.890625 100.91375 5.890625 101.59375 C3.66015625 103.21484375 3.66015625 103.21484375 0.703125 105.03125 C-0.25980469 105.62808594 -1.22273438 106.22492188 -2.21484375 106.83984375 C-3.17003906 107.41863281 -4.12523438 107.99742187 -5.109375 108.59375 C-6.30626953 109.37878906 -6.30626953 109.37878906 -7.52734375 110.1796875 C-20.49750449 117.28286176 -38.36181471 117.62057363 -52.421875 114.09375 C-68.63647135 108.68257782 -81.47984129 98.44714177 -90.109375 83.59375 C-92.04028413 79.67405708 -93.64132614 75.70751329 -95.109375 71.59375 C-95.43035156 70.72105469 -95.75132813 69.84835938 -96.08203125 68.94921875 C-101.05909003 53.50876196 -98.13797129 37.28371507 -91.109375 22.96875 C-81.74094598 6.72880801 -67.35244391 -4.28561371 -49.3828125 -9.484375 C-32.50330534 -13.5781677 -14.295512 -9.53034133 0 0 Z " fill="#A8BFD7" transform="translate(106.109375,37.40625)"/>
<path d="M0 0 C2.27978255 2.82693036 3.79019506 5.50120169 5.125 8.875 C5.62386719 10.10863281 5.62386719 10.10863281 6.1328125 11.3671875 C10.92776056 25.92482259 8.91180439 44.1728619 2.234375 57.72265625 C-1.50164352 64.80908214 -5.96842368 71.64803791 -12 77 C-12.66 77 -13.32 77 -14 77 C-14 77.66 -14 78.32 -14 79 C-16.23046875 80.62109375 -16.23046875 80.62109375 -19.1875 82.4375 C-20.15042969 83.03433594 -21.11335938 83.63117188 -22.10546875 84.24609375 C-23.06066406 84.82488281 -24.01585938 85.40367187 -25 86 C-26.19689453 86.78503906 -26.19689453 86.78503906 -27.41796875 87.5859375 C-40.38812949 94.68911176 -58.25243971 95.02682363 -72.3125 91.5 C-89.71326038 85.69297845 -103.06418093 74.2864822 -111.57421875 57.984375 C-114.43315599 51.74954201 -115.64267713 47.68804259 -114 41 C-113.814375 40.01 -113.62875 39.02 -113.4375 38 C-113.293125 37.34 -113.14875 36.68 -113 36 C-112.01 36 -111.02 36 -110 36 C-109.34 34.68 -108.68 33.36 -108 32 C-107.34 32.33 -106.68 32.66 -106 33 C-105.83312552 30.58354218 -105.83312552 30.58354218 -106 28 C-106.66 27.34 -107.32 26.68 -108 26 C-107.34 25.34 -106.68 24.68 -106 24 C-105.30251417 22.68252676 -104.63040043 21.35085807 -104 20 C-103.14041636 22.57875091 -102.81711733 24.36869981 -102.640625 27.02734375 C-101.50488878 41.71068319 -98.35111085 55.29906864 -87.08984375 65.77734375 C-73.85974281 76.11418206 -60.49542967 78.61605136 -44 77 C-39.56032098 75.91453808 -35.92392159 74.31756619 -32 72 C-31.195625 71.55398437 -30.39125 71.10796875 -29.5625 70.6484375 C-18.77059689 64.12225285 -11.97202353 54.15690667 -8.44213867 42.09350586 C-6.48571216 32.82991813 -6.80519441 20.73713422 -10.34375 11.97265625 C-11.14086569 9.57656444 -11.10468878 7.50816862 -11 5 C-10.01 5 -9.02 5 -8 5 C-4.95139986 3.98379995 -4.13333078 3.22608429 -2 1 C-1.34 0.67 -0.68 0.34 0 0 Z " fill="#A9BFD6" transform="translate(126,60)"/>
<path d="M0 0 C3.63 0 7.26 0 11 0 C11 4.95 11 9.9 11 15 C12.08539063 14.96519531 13.17078125 14.93039063 14.2890625 14.89453125 C15.73435942 14.86637612 17.17967321 14.83907781 18.625 14.8125 C19.69427734 14.77479492 19.69427734 14.77479492 20.78515625 14.73632812 C26.48029517 14.65795465 30.57752855 15.71972814 34.86328125 19.75390625 C35.34152344 20.35074219 35.81976563 20.94757813 36.3125 21.5625 C37.04919922 22.46162109 37.04919922 22.46162109 37.80078125 23.37890625 C41.36270707 28.1938874 40.35599389 34.27051347 40 40 C38.98086232 45.8062798 36.37695694 49.13163653 31.9140625 52.87109375 C23.62383279 57.76063739 5.202518 55 0 55 C0 36.85 0 18.7 0 0 Z " fill="#A7BCD0" transform="translate(154,62)"/>
<path d="M0 0 C3.3 0 6.6 0 10 0 C10 4.62 10 9.24 10 14 C11.73636719 13.94779297 11.73636719 13.94779297 13.5078125 13.89453125 C15.0468604 13.86637793 16.58592411 13.83907944 18.125 13.8125 C19.26582031 13.77479492 19.26582031 13.77479492 20.4296875 13.73632812 C25.38118365 13.67230016 28.73686165 14.20604335 33 17 C34.86328125 18.9375 34.86328125 18.9375 36.3125 21 C37.04919922 22.0209375 37.04919922 22.0209375 37.80078125 23.0625 C40.85125869 27.99095867 40.6214096 33.40731357 40 39 C37.43707338 47.86397547 34.66801214 49.1844377 26 54 C17.42 54 8.84 54 0 54 C0 36.18 0 18.36 0 0 Z " fill="#A9BED4" transform="translate(408,63)"/>
<path d="M0 0 C2.89782619 1.23425931 5.02717875 2.3714173 7.375 4.4375 C4.62307756 11.19221871 -1.40596256 15.14153045 -7.625 18.4375 C-14.76888864 21.37910121 -24.18760309 21.69948203 -31.625 19.4375 C-31.955 20.0975 -32.285 20.7575 -32.625 21.4375 C-21.78317141 23.89791498 -11.32453344 23.01392951 -1.6796875 17.28125 C-0.31223533 16.35640312 1.03398484 15.40028011 2.375 14.4375 C3.035 14.4375 3.695 14.4375 4.375 14.4375 C4.375 13.7775 4.375 13.1175 4.375 12.4375 C6.125 10.25 6.125 10.25 8.375 8.4375 C10.4375 8.375 10.4375 8.375 12.375 9.4375 C14.30753299 11.92218527 15.25786556 13.85182779 15.875 16.9375 C15.11948671 20.71506643 13.33875253 22.02945107 10.375 24.4375 C3.36315551 28.85801066 -4.34261862 30.86223751 -12.625 30.4375 C-12.625 31.4275 -12.625 32.4175 -12.625 33.4375 C-11.45582031 33.33050781 -10.28664062 33.22351563 -9.08203125 33.11328125 C-7.53392312 32.99130909 -5.98574175 32.87026408 -4.4375 32.75 C-3.66857422 32.67716797 -2.89964844 32.60433594 -2.10742188 32.52929688 C2.69380803 32.17899255 5.3952588 32.40814476 9.375 35.4375 C10.70108822 36.11846422 12.03186601 36.79080586 13.375 37.4375 C12.055 37.4375 10.735 37.4375 9.375 37.4375 C9.045 38.4275 8.715 39.4175 8.375 40.4375 C-1.70338197 44.14880976 -14.54629461 41.91413727 -24.0234375 37.7265625 C-25.31121094 37.08847656 -25.31121094 37.08847656 -26.625 36.4375 C-27.78902344 35.86128906 -27.78902344 35.86128906 -28.9765625 35.2734375 C-29.52054688 34.99757812 -30.06453125 34.72171875 -30.625 34.4375 C-30.625 33.7775 -30.625 33.1175 -30.625 32.4375 C-31.21410156 32.18097656 -31.80320312 31.92445312 -32.41015625 31.66015625 C-39.07101287 27.98317543 -43.57943847 20.20229566 -46.625 13.4375 C-46.625 12.7775 -46.625 12.1175 -46.625 11.4375 C-45.305 11.4375 -43.985 11.4375 -42.625 11.4375 C-43.285 10.4475 -43.945 9.4575 -44.625 8.4375 C-44.75 5.75 -44.75 5.75 -44.625 3.4375 C-42.975 2.7775 -41.325 2.1175 -39.625 1.4375 C-39.295 2.4275 -38.965 3.4175 -38.625 4.4375 C-32.38900495 8.26413332 -25.77220876 8.22585878 -18.625 7.4375 C-13.95248191 6.08365003 -10.36134594 3.99712292 -6.5 1.0625 C-3.625 -0.5625 -3.625 -0.5625 0 0 Z " fill="#A8C0D9" transform="translate(75.625,92.5625)"/>
<path d="M0 0 C4.33320395 -0.08772579 8.66617668 -0.14063579 13 -0.1875 C14.22074219 -0.21263672 15.44148438 -0.23777344 16.69921875 -0.26367188 C29.28684882 -0.36573374 29.28684882 -0.36573374 35 3 C40.75154761 9.14952493 39.44846995 18.20623761 39.25 26 C39.22989985 27.36065073 39.21165529 28.7213302 39.1953125 30.08203125 C39.1484085 33.388763 39.08277725 36.69400416 39 40 C34.23113513 40.04950115 29.46242041 40.08576738 24.69335938 40.10986328 C23.07158808 40.11991023 21.44983484 40.13355015 19.828125 40.15087891 C17.49474626 40.17518493 15.1616074 40.18649613 12.828125 40.1953125 C11.74352997 40.21079636 11.74352997 40.21079636 10.63702393 40.22659302 C6.92872625 40.22741633 4.10832318 40.12748703 1 38 C-2.58195086 34.03426869 -2.55364958 29.7115548 -2.4296875 24.6015625 C-2 22 -2 22 0.375 18.875 C4.04620516 16.2527106 5.76445233 15.87782666 10.2265625 15.90234375 C11.2578125 15.90556641 12.2890625 15.90878906 13.3515625 15.91210938 C14.97191406 15.92467773 14.97191406 15.92467773 16.625 15.9375 C18.25695312 15.94426758 18.25695312 15.94426758 19.921875 15.95117188 C22.61463789 15.96298224 25.30729188 15.97945222 28 16 C26.92598892 13.08482708 26.22189824 11.22189824 24 9 C21.47962036 8.62864085 21.47962036 8.62864085 18.5546875 8.5859375 C16.94013672 8.52792969 16.94013672 8.52792969 15.29296875 8.46875 C14.16503906 8.4378125 13.03710938 8.406875 11.875 8.375 C10.17150391 8.31699219 10.17150391 8.31699219 8.43359375 8.2578125 C5.62256044 8.16332399 2.81153767 8.07776459 0 8 C0 5.36 0 2.72 0 0 Z " fill="#A9BDD3" transform="translate(330,77)"/>
<path d="M0 0 C4.33310328 -0.116965 8.6657958 -0.1875089 13 -0.25 C14.22074219 -0.28351563 15.44148438 -0.31703125 16.69921875 -0.3515625 C30.19703702 -0.49748486 30.19703702 -0.49748486 35 4 C37.81330569 8.49917415 38.3604166 11.88750549 38.29296875 17.1484375 C38.28872391 17.80582916 38.28447906 18.46322083 38.28010559 19.14053345 C38.26344977 21.21912391 38.2258262 23.29670774 38.1875 25.375 C38.17243605 26.79295464 38.15875065 28.21092464 38.14648438 29.62890625 C38.11359038 33.0862589 38.06190165 36.54303103 38 40 C33.26783707 40.12408851 28.53663168 40.21456516 23.80322266 40.2746582 C22.19498182 40.29972128 20.58685398 40.33378171 18.97900391 40.37719727 C16.66019761 40.43821848 14.34290335 40.46628963 12.0234375 40.48828125 C11.31069672 40.51408768 10.59795593 40.5398941 9.86361694 40.56648254 C5.96611912 40.56864631 3.54390754 40.00968761 0.56103516 37.59448242 C-2.78242205 34.20735947 -3.15322072 32.74584737 -3.1875 28.125 C-3.20167969 27.26132813 -3.21585938 26.39765625 -3.23046875 25.5078125 C-2.97624692 22.74153427 -2.58669294 21.27759527 -1 19 C2.62956454 16.40581233 5.08013312 15.63262793 9.51953125 15.70703125 C10.54111328 15.71669922 11.56269531 15.72636719 12.61523438 15.73632812 C14.19788086 15.7740332 14.19788086 15.7740332 15.8125 15.8125 C17.42415039 15.83280273 17.42415039 15.83280273 19.06835938 15.85351562 C21.71275455 15.88877423 24.35611748 15.93805634 27 16 C27 14.35 27 12.7 27 11 C23.45796529 9.40901514 20.57284927 8.72185436 16.69921875 8.5859375 C15.72275391 8.54726562 14.74628906 8.50859375 13.74023438 8.46875 C12.73283203 8.4378125 11.72542969 8.406875 10.6875 8.375 C9.66076172 8.33632812 8.63402344 8.29765625 7.57617188 8.2578125 C5.05095735 8.16385103 2.52574408 8.0781846 0 8 C0 5.36 0 2.72 0 0 Z " fill="#A8BCD1" transform="translate(202,77)"/>
<path d="M0 0 C0.99 0.33 1.98 0.66 3 1 C2.67 1.99 2.34 2.98 2 4 C1.34 4 0.68 4 0 4 C-0.42925781 4.85851563 -0.42925781 4.85851563 -0.8671875 5.734375 C-1.58494421 7.16988842 -2.31760833 8.59812371 -3.0703125 10.015625 C-7.73252209 19.89260236 -6.76023971 31.43856172 -5 42 C-3.686298 41.3566152 -2.37407102 40.71021785 -1.0625 40.0625 C0.03384766 39.52302734 0.03384766 39.52302734 1.15234375 38.97265625 C2.96249027 38.13628173 2.96249027 38.13628173 4 37 C4.16097397 34.68972542 4.2779158 32.37634008 4.375 30.0625 C4.90701914 20.46678863 6.39083652 11.56488061 13.484375 4.52734375 C17.4538649 1 17.4538649 1 21 1 C21 1.99 21 2.98 21 4 C19.02 4.99 19.02 4.99 17 6 C17.76183594 6.25652344 18.52367187 6.51304688 19.30859375 6.77734375 C29.35382011 10.50197824 36.81198745 16.52623796 42 26 C42 26.99 42 27.98 42 29 C41.01 29 40.02 29 39 29 C37.2734375 26.8046875 37.2734375 26.8046875 35.375 23.875 C31.15565971 17.88924485 26.80284138 13.08027435 19.4296875 11.421875 C16.70361948 11.06060845 16.70361948 11.06060845 13 11 C12.01 13.97 11.02 16.94 10 20 C11.2065625 19.87625 11.2065625 19.87625 12.4375 19.75 C21.90033053 20.41405828 30.14309557 26.61640343 36.3125 33.5 C40.64489195 38.88302651 42.42159266 42.97345573 42 50 C41.34 50 40.68 50 40 50 C39.78085938 49.3709375 39.56171875 48.741875 39.3359375 48.09375 C35.81794149 38.59802093 31.71980368 32.26661788 22.74609375 27.25390625 C18.27837301 25.21388014 13.78072927 24.10324522 9 23 C9 26.96 9 30.92 9 35 C10.65 35.33 12.3 35.66 14 36 C22.5842635 40.31452548 28.46315154 46.93978963 31.54296875 56.03515625 C32.25616966 59.10131057 32.19596366 61.86458146 32 65 C31.01 65 30.02 65 29 65 C28.67 64.01 28.34 63.02 28 62 C27.29875 62.721875 26.5975 63.44375 25.875 64.1875 C18.52141186 70.30093432 8.36879832 72.80765503 -1 72 C-1 71.01 -1 70.02 -1 69 C-0.01 68.82984375 0.98 68.6596875 2 68.484375 C9.23341567 67.17869769 15.56852431 65.71046674 22 62 C22.99 61.67 23.98 61.34 25 61 C26.14706465 55.40933298 26.14706465 55.40933298 24.75 50.0625 C23.08669291 47.74068239 23.08669291 47.74068239 20 47 C19.34 48.32 18.68 49.64 18 51 C17.34 51 16.68 51 16 51 C16 51.66 16 52.32 16 53 C6.16021753 60.37470127 -3.76981824 63.21984974 -16 62 C-18.890625 60.98046875 -18.890625 60.98046875 -21 60 C-20.67 59.01 -20.34 58.02 -20 57 C-19.20335937 57.23976563 -19.20335937 57.23976563 -18.390625 57.484375 C-9.21052813 59.46439589 -0.4624692 58.47370614 7.4140625 53.46484375 C8.997364 52.40176989 10.56660806 51.31728935 12.1171875 50.20703125 C14 49 14 49 16 49 C16.66 47.02 17.32 45.04 18 43 C14.76435242 40.13769637 12.36082342 38.91772031 8 39 C5.62444465 40.32212237 3.50479303 41.80884445 1.34375 43.45703125 C-5.18106451 47.75253414 -12.44431117 47.78953735 -20 47 C-23.03378936 45.96010201 -25.26252204 44.71763323 -28 43 C-28 42.01 -28 41.02 -28 40 C-26.68 40.33 -25.36 40.66 -24 41 C-24.03480469 39.88882813 -24.06960937 38.77765625 -24.10546875 37.6328125 C-24.54715454 17.4896755 -24.54715454 17.4896755 -18 10 C-17.34 10 -16.68 10 -16 10 C-16.44850181 12.61626054 -16.95340022 14.89422537 -18.02685547 17.33081055 C-19.09302423 20.25515152 -19.22996843 22.41782558 -19.1953125 25.51953125 C-19.18886719 26.54111328 -19.18242188 27.56269531 -19.17578125 28.61523438 C-19.15902344 29.67033203 -19.14226563 30.72542969 -19.125 31.8125 C-19.11146484 33.42415039 -19.11146484 33.42415039 -19.09765625 35.06835938 C-19.07415424 37.71233552 -19.03828517 40.3561966 -19 43 C-15.37 43.33 -11.74 43.66 -8 44 C-8.32226562 42.88496094 -8.64453125 41.76992187 -8.9765625 40.62109375 C-10.1880109 35.74849821 -10.36737919 31.06556476 -10.375 26.0625 C-10.39949219 25.22009766 -10.42398438 24.37769531 -10.44921875 23.50976562 C-10.48559447 15.63442245 -8.21075368 8.77057779 -2.75 2.9375 C-2.22921875 2.36902344 -1.7084375 1.80054688 -1.171875 1.21484375 C-0.78515625 0.81394531 -0.3984375 0.41304687 0 0 Z " fill="#2762CC" transform="translate(64,54)"/>
<path d="M0 0 C0.79019531 -0.01160156 1.58039063 -0.02320313 2.39453125 -0.03515625 C8.24390506 -0.00643592 13.08062276 1.22517546 18.5 3.375 C19.39589844 3.72820313 20.29179688 4.08140625 21.21484375 4.4453125 C33.47297668 10.26200124 42.59908236 20.08925362 47.4375 32.8125 C50.68620555 45.60300109 49.71615233 59.75063026 43.5 71.375 C43.06558594 72.19097656 42.63117188 73.00695312 42.18359375 73.84765625 C35.1065565 85.60239334 24.27098536 92.11800488 11.5 96.375 C-4.303879 97.71103221 -16.64836152 96.0743498 -29.5 86.375 C-30.3146875 85.79234375 -31.129375 85.2096875 -31.96875 84.609375 C-34.97199898 81.95835893 -37.02703808 78.99543711 -39.125 75.625 C-39.71474609 74.69010742 -39.71474609 74.69010742 -40.31640625 73.73632812 C-47.08580141 62.78449522 -49.39298507 50.74257181 -46.81640625 37.9921875 C-42.62555246 23.28072565 -34.42803982 12.48852364 -21.25 4.6640625 C-14.1414243 1.33191764 -7.84692375 -0.11520769 0 0 Z M-34.25 20.625 C-42.58098894 31.92027105 -44.24685768 42.75818405 -43.5 56.375 C-42.87864973 59.61424516 -41.88603158 62.39201898 -40.5 65.375 C-40.24476562 66.02339844 -39.98953125 66.67179687 -39.7265625 67.33984375 C-37.01387844 73.6238137 -32.44926494 78.71237203 -27.5 83.375 C-26.84 83.375 -26.18 83.375 -25.5 83.375 C-25.5 84.035 -25.5 84.695 -25.5 85.375 C-23.79347935 86.17056657 -22.0846883 86.9612638 -20.375 87.75 C-18.94800781 88.41128906 -18.94800781 88.41128906 -17.4921875 89.0859375 C-11.27394499 91.76481482 -6.32909807 92.6921529 0.375 92.625 C1.13941406 92.63273437 1.90382812 92.64046875 2.69140625 92.6484375 C14.40889799 92.60864975 23.99866638 88.37473865 32.5859375 80.4375 C41.99051914 70.30358346 46.39308232 57.6116525 45.94921875 43.8671875 C44.74517394 34.50704781 40.75918929 26.36056434 34.5 19.375 C33.98824219 18.77171875 33.47648437 18.1684375 32.94921875 17.546875 C25.79462789 9.69219291 15.71471151 4.63976656 5.08203125 4.00390625 C-11.16183518 3.58605216 -23.58858261 7.78544358 -34.25 20.625 Z " fill="#2762CC" transform="translate(70.5,41.625)"/>
<path d="M0 0 C3.3 0 6.6 0 10 0 C10.02505615 0.83249268 10.0501123 1.66498535 10.07592773 2.52270508 C10.17112694 5.61462833 10.27035672 8.70638852 10.37231445 11.7980957 C10.43687006 13.79303319 10.4967783 15.78811929 10.55664062 17.78320312 C10.61948242 19.66362305 10.61948242 19.66362305 10.68359375 21.58203125 C10.72025146 22.73936768 10.75690918 23.8967041 10.79467773 25.08911133 C10.88328509 28.0643446 10.88328509 28.0643446 12 31 C16.62 31 21.24 31 26 31 C26 20.77 26 10.54 26 0 C29.63 0 33.26 0 37 0 C37 13.2 37 26.4 37 40 C32.50375 40.0825 28.0075 40.165 23.375 40.25 C21.96782715 40.28641602 20.5606543 40.32283203 19.11083984 40.36035156 C7.5723294 40.46309286 7.5723294 40.46309286 3 36 C-0.47921313 32.40733996 -0.35121604 29.50214745 -0.29296875 24.609375 C-0.28872391 23.90476135 -0.28447906 23.20014771 -0.28010559 22.47418213 C-0.26336538 20.23239288 -0.22572404 17.99151569 -0.1875 15.75 C-0.17244704 14.22657552 -0.1587597 12.70313689 -0.14648438 11.1796875 C-0.11347791 7.45283059 -0.06172854 3.72650437 0 0 Z " fill="#A7BCD1" transform="translate(454,77)"/>
<path d="M0 0 C2.54232342 -0.08152344 5.08199202 -0.14073716 7.625 -0.1875 C8.33785156 -0.21263672 9.05070313 -0.23777344 9.78515625 -0.26367188 C15.48029517 -0.34204535 19.57752855 0.71972814 23.86328125 4.75390625 C24.34152344 5.35074219 24.81976563 5.94757813 25.3125 6.5625 C25.80363281 7.16191406 26.29476562 7.76132813 26.80078125 8.37890625 C30.3486963 13.17494777 29.39883041 19.29007803 29 25 C28.25763473 27.91335207 27.28643701 30.26632136 26 33 C24.35 32.67 22.7 32.34 21 32 C21 31.34 21 30.68 21 30 C19.35 30 17.7 30 16 30 C15.67 30.66 15.34 31.32 15 32 C10.05 32 5.1 32 0 32 C0 24.08 0 16.16 0 8 C0.66 7.67 1.32 7.34 2 7 C2.33 6.34 2.66 5.68 3 5 C4.97888961 4.27306096 6.97954558 3.60183749 9 3 C4.545 2.01 4.545 2.01 0 1 C0 0.67 0 0.34 0 0 Z " fill="#A6BACF" transform="translate(165,77)"/>
<path d="M0 0 C1.06089844 0.02255859 2.12179687 0.04511719 3.21484375 0.06835938 C5.81139699 0.1268403 8.40492866 0.20873546 11 0.3125 C11 3.2825 11 6.2525 11 9.3125 C9.67484375 9.36148438 8.3496875 9.41046875 6.984375 9.4609375 C5.23956283 9.53598318 3.49477218 9.61153024 1.75 9.6875 C0.87730469 9.7184375 0.00460937 9.749375 -0.89453125 9.78125 C-1.73886719 9.81992188 -2.58320313 9.85859375 -3.453125 9.8984375 C-4.61569824 9.94556885 -4.61569824 9.94556885 -5.80175781 9.99365234 C-8.24693266 10.34831675 -9.90294092 11.01637699 -12 12.3125 C-13.27177488 14.85604977 -13.23946059 16.78415152 -13.3125 19.625 C-13.34988281 20.56988281 -13.38726562 21.51476562 -13.42578125 22.48828125 C-12.8419455 26.36087982 -12.02139269 27.78191477 -9 30.3125 C-5.58695832 31.06225758 -2.23495292 31.10303601 1.25 31.125 C2.18585938 31.15013672 3.12171875 31.17527344 4.0859375 31.20117188 C6.3901741 31.25995342 8.69513242 31.28911112 11 31.3125 C11 34.2825 11 37.2525 11 40.3125 C7.31277073 40.42951204 3.62602458 40.50002045 -0.0625 40.5625 C-1.10083984 40.59601563 -2.13917969 40.62953125 -3.20898438 40.6640625 C-9.75585121 40.74719732 -13.68526691 40.22334133 -19 36.3125 C-23.91852038 31.26104664 -25.11648588 26.33496564 -25.4375 19.4375 C-25.31025606 13.39715521 -24.02251572 9.77392259 -20 5.3125 C-13.81049808 -0.14992188 -7.97536265 -0.32440461 0 0 Z " fill="#A3B7CC" transform="translate(272,76.6875)"/>
<path d="M0 0 C1.46469727 0.00966797 1.46469727 0.00966797 2.95898438 0.01953125 C3.96638672 0.03628906 4.97378906 0.05304688 6.01171875 0.0703125 C7.03845703 0.07933594 8.06519531 0.08835937 9.12304688 0.09765625 C11.64867774 0.12115049 14.17382685 0.15400119 16.69921875 0.1953125 C16.69921875 3.1653125 16.69921875 6.1353125 16.69921875 9.1953125 C14.58580078 9.28619141 14.58580078 9.28619141 12.4296875 9.37890625 C10.58202099 9.46331741 8.73436528 9.54796513 6.88671875 9.6328125 C5.49356445 9.69178711 5.49356445 9.69178711 4.07226562 9.75195312 C2.73325195 9.81479492 2.73325195 9.81479492 1.3671875 9.87890625 C0.13391724 9.93389282 0.13391724 9.93389282 -1.12426758 9.98999023 C-3.47983303 10.12959022 -3.47983303 10.12959022 -6.30078125 11.1953125 C-7.84316575 15.29339225 -7.75387647 19.88706815 -7.30078125 24.1953125 C-6.14182285 26.61400828 -5.17756029 28.31853346 -3.30078125 30.1953125 C-1.81439133 30.35186277 -0.32128998 30.44598193 1.171875 30.51171875 C2.07099609 30.55361328 2.97011719 30.59550781 3.89648438 30.63867188 C4.84201172 30.67798828 5.78753906 30.71730469 6.76171875 30.7578125 C8.18581055 30.82258789 8.18581055 30.82258789 9.63867188 30.88867188 C11.99200051 30.99510382 14.34558974 31.09574404 16.69921875 31.1953125 C16.69921875 34.1653125 16.69921875 37.1353125 16.69921875 40.1953125 C13.03298063 40.3419079 9.36750675 40.42981124 5.69921875 40.5078125 C4.15427734 40.5706543 4.15427734 40.5706543 2.578125 40.63476562 C-4.38616806 40.74566201 -8.9797013 39.83701653 -14.30078125 35.1953125 C-18.33442767 30.81712545 -19.63360847 26.00058156 -19.86328125 20.1328125 C-19.54983783 13.29800451 -17.76576283 8.59708942 -12.86328125 3.8203125 C-8.56717854 1.09595469 -5.09386144 -0.05957733 0 0 Z " fill="#A5BACF" transform="translate(557.30078125,76.8046875)"/>
<path d="M0 0 C0.97453125 0.00902344 1.9490625 0.01804687 2.953125 0.02734375 C5.34385672 0.0507823 7.73446099 0.08664911 10.125 0.125 C10.125 3.095 10.125 6.065 10.125 9.125 C8.81144531 9.13917969 7.49789062 9.15335938 6.14453125 9.16796875 C4.40881949 9.21487988 2.67314348 9.26312721 0.9375 9.3125 C0.07318359 9.31830078 -0.79113281 9.32410156 -1.68164062 9.33007812 C-6.12177849 9.48318633 -8.29232927 9.69593575 -11.95703125 12.39453125 C-14.77835235 16.41103522 -14.68027948 19.39612473 -13.875 24.125 C-12.1630813 27.88898568 -12.1630813 27.88898568 -8.875 30.125 C-7.4284758 30.27567214 -5.9762066 30.37361036 -4.5234375 30.44140625 C-3.67265625 30.48330078 -2.821875 30.52519531 -1.9453125 30.56835938 C-1.05585938 30.60767578 -0.16640625 30.64699219 0.75 30.6875 C1.6471875 30.73068359 2.544375 30.77386719 3.46875 30.81835938 C5.68731239 30.92456715 7.90613565 31.02529959 10.125 31.125 C10.125 34.095 10.125 37.065 10.125 40.125 C6.45876188 40.2715954 2.793288 40.35949874 -0.875 40.4375 C-2.41994141 40.5003418 -2.41994141 40.5003418 -3.99609375 40.56445312 C-10.92076684 40.67471862 -15.62434473 39.82595663 -20.875 35.125 C-25.28059592 29.74650165 -26.64535288 23.5819997 -26.296875 16.73828125 C-25.42649718 11.34677422 -23.33667826 7.58667826 -19.5 3.75 C-13.14287729 -0.18536168 -7.25006326 -0.12771114 0 0 Z " fill="#A2B6CA" transform="translate(312.875,76.875)"/>
<path d="M0 0 C0.98291016 0.00322266 1.96582031 0.00644531 2.97851562 0.00976562 C4.51475586 0.02233398 4.51475586 0.02233398 6.08203125 0.03515625 C7.63567383 0.04192383 7.63567383 0.04192383 9.22070312 0.04882812 C11.77870391 0.06061615 14.33658858 0.0770711 16.89453125 0.09765625 C16.89453125 2.73765625 16.89453125 5.37765625 16.89453125 8.09765625 C15.50041016 8.17113281 15.50041016 8.17113281 14.078125 8.24609375 C4.7654628 8.6135579 4.7654628 8.6135579 -4.10546875 11.09765625 C-5.91734729 13.91953465 -6.37879854 16.148161 -6.35546875 19.47265625 C-6.360625 20.20226562 -6.36578125 20.931875 -6.37109375 21.68359375 C-6.11818042 24.76142469 -6.11818042 24.76142469 -4.10546875 30.09765625 C2.82453125 30.42765625 9.75453125 30.75765625 16.89453125 31.09765625 C16.89453125 34.06765625 16.89453125 37.03765625 16.89453125 40.09765625 C13.37398211 40.21475268 9.85394013 40.28520315 6.33203125 40.34765625 C5.34138672 40.38117188 4.35074219 40.4146875 3.33007812 40.44921875 C-4.20541759 40.54935823 -8.48157198 39.48752446 -14.1015625 34.23046875 C-18.8844831 27.56808071 -19.37087587 21.11504912 -18.10546875 13.09765625 C-16.11647097 7.85025966 -12.79243368 4.18118581 -8.10546875 1.09765625 C-5.10530963 0.09760321 -3.13123119 -0.0180996 0 0 Z " fill="#A6BACF" transform="translate(516.10546875,76.90234375)"/>
<path d="M0 0 C3.96 0 7.92 0 12 0 C12 13.2 12 26.4 12 40 C8.04 40 4.08 40 0 40 C0 26.8 0 13.6 0 0 Z " fill="#A2B5CC" transform="translate(580,77)"/>
<path d="M0 0 C12.24185013 -0.40357748 12.24185013 -0.40357748 17 3 C18.92964064 4.92964064 18.26230473 8.24725758 18.3125 10.8125 C18.34988281 12.05644531 18.38726562 13.30039063 18.42578125 14.58203125 C18 18 18 18 16.43359375 20.43359375 C11.57619908 23.560103 5.56165313 22.20598715 0 22 C0 14.74 0 7.48 0 0 Z " fill="#050507" transform="translate(418,86)"/>
<path d="M0 0 C11.90146684 -0.60108418 11.90146684 -0.60108418 16.3125 1.8125 C18.81048501 6.53091613 18.7300222 10.77209906 18 16 C16.6875 19.125 16.6875 19.125 15 21 C10.09931037 22.63356321 5.14261524 22.05529694 0 22 C0 14.74 0 7.48 0 0 Z " fill="#030305" transform="translate(165,86)"/>
<path d="M0 0 C-0.99 0.495 -0.99 0.495 -2 1 C-2 2.65 -2 4.3 -2 6 C-1.34644531 5.82597656 -0.69289063 5.65195313 -0.01953125 5.47265625 C3.81219707 4.87286437 7.4696844 5.13872881 11.3125 5.4375 C12.42334961 5.51581055 12.42334961 5.51581055 13.55664062 5.59570312 C15.37152709 5.72450152 17.18583325 5.86143262 19 6 C19 8.97 19 11.94 19 15 C13.06 15 7.12 15 1 15 C0.34 13.68 -0.32 12.36 -1 11 C-1.66 11 -2.32 11 -3 11 C-2.938125 12.11375 -2.87625 13.2275 -2.8125 14.375 C-2.874375 15.57125 -2.93625 16.7675 -3 18 C-6 20 -6 20 -8 21 C-11.45225685 16.82852297 -11.55584202 12.80193235 -11.4296875 7.6015625 C-11 5 -11 5 -8.625 1.875 C-5.09397787 -0.64715866 -4.10200497 -1.23060149 0 0 Z " fill="#A0B3C7" transform="translate(339,94)"/>
<path d="M0 0 C0.33 0 0.66 0 1 0 C1 2.31 1 4.62 1 7 C1.33 7 1.66 7 2 7 C2.33 5.35 2.66 3.7 3 2 C3.33 2 3.66 2 4 2 C4.71404789 10.34642647 3.3449235 15.84639381 -1 23 C-1.66 23 -2.32 23 -3 23 C-3.33 21.35 -3.66 19.7 -4 18 C-4.66 18 -5.32 18 -6 18 C-6.33 17.34 -6.66 16.68 -7 16 C-9.1385485 18.1385485 -9.42655063 19.13275314 -10 22 C-10.66 22 -11.32 22 -12 22 C-11.25 17.25 -11.25 17.25 -9 15 C-8.53603307 12.10776497 -8.53603307 12.10776497 -8.375 8.875 C-8.30023438 7.77929688 -8.22546875 6.68359375 -8.1484375 5.5546875 C-8.09945313 4.71164063 -8.05046875 3.86859375 -8 3 C-7.38640625 3.33773437 -6.7728125 3.67546875 -6.140625 4.0234375 C-3.5943287 5.18506902 -2.57856865 4.92091738 0 4 C0 2.68 0 1.36 0 0 Z " fill="#A3B8CC" transform="translate(444,89)"/>
<path d="M0 0 C0.74886475 0.00523682 1.49772949 0.01047363 2.26928711 0.01586914 C3.07817383 0.0190918 3.88706055 0.02231445 4.72045898 0.02563477 C5.5705957 0.03401367 6.42073242 0.04239258 7.29663086 0.05102539 C8.15063477 0.05553711 9.00463867 0.06004883 9.88452148 0.06469727 C12.00108749 0.07652166 14.11761771 0.0944577 16.23413086 0.11352539 C16.23413086 2.75352539 16.23413086 5.39352539 16.23413086 8.11352539 C13.25490492 8.14036526 10.27591791 8.16028576 7.29663086 8.17602539 C6.02142578 8.18859375 6.02142578 8.18859375 4.72045898 8.20141602 C3.91157227 8.20463867 3.10268555 8.20786133 2.26928711 8.21118164 C1.52042236 8.21641846 0.77155762 8.22165527 0 8.22705078 C-1.76586914 8.11352539 -1.76586914 8.11352539 -2.76586914 7.11352539 C-2.89086914 4.11352539 -2.89086914 4.11352539 -2.76586914 1.11352539 C-1.76586914 0.11352539 -1.76586914 0.11352539 0 0 Z " fill="#07080B" transform="translate(341.765869140625,100.886474609375)"/>
<path d="M0 0 C5.28 0 10.56 0 16 0 C16 2.64 16 5.28 16 8 C-3.10416453 8.37296634 -3.10416453 8.37296634 -9 5 C-6 4 -6 4 -2 4 C-1.34 2.68 -0.68 1.36 0 0 Z " fill="#ACC1D7" transform="translate(266,109)"/>
<path d="M0 0 C0.74886475 0.00523682 1.49772949 0.01047363 2.26928711 0.01586914 C3.07817383 0.0190918 3.88706055 0.02231445 4.72045898 0.02563477 C5.5705957 0.03401367 6.42073242 0.04239258 7.29663086 0.05102539 C8.15063477 0.05553711 9.00463867 0.06004883 9.88452148 0.06469727 C12.00108749 0.07652166 14.11761771 0.0944577 16.23413086 0.11352539 C16.23413086 2.75352539 16.23413086 5.39352539 16.23413086 8.11352539 C13.44220881 8.16733117 10.65131676 8.20710208 7.85913086 8.23852539 C7.06506836 8.2552832 6.27100586 8.27204102 5.45288086 8.28930664 C3.37921071 8.30688012 1.30529844 8.21687707 -0.76586914 8.11352539 C-2.76586914 6.11352539 -2.76586914 6.11352539 -2.95336914 3.55102539 C-2.69353363 0.17316371 -2.69353363 0.17316371 0 0 Z " fill="#06080B" transform="translate(212.765869140625,100.886474609375)"/>
<path d="M0 0 C6.27 0 12.54 0 19 0 C19 2.31 19 4.62 19 7 C12.07 7 5.14 7 -2 7 C-1.34 5.35 -0.68 3.7 0 2 C0 1.34 0 0.68 0 0 Z " fill="#ABC1D8" transform="translate(514,78)"/>
<path d="M0 0 C0.75410156 0.00451172 1.50820313 0.00902344 2.28515625 0.01367188 C4.14847127 0.02546501 6.01174555 0.04340058 7.875 0.0625 C7.875 2.3725 7.875 4.6825 7.875 7.0625 C-2.52 7.5575 -2.52 7.5575 -13.125 8.0625 C-12.135 7.0725 -11.145 6.0825 -10.125 5.0625 C-10.125 3.7425 -10.125 2.4225 -10.125 1.0625 C-6.93675432 -0.53162284 -3.49603338 -0.03924735 0 0 Z " fill="#ACC2D8" transform="translate(314.125,77.9375)"/>
<path d="M0 0 C7.92 0.33 15.84 0.66 24 1 C19 6 19 6 15.1171875 6.55859375 C13.7026232 6.54410566 12.28811497 6.50313649 10.875 6.4375 C10.15957031 6.43169922 9.44414062 6.42589844 8.70703125 6.41992188 C4.97594198 6.33274689 3.16672119 6.11114746 0 4 C0 2.68 0 1.36 0 0 Z " fill="#AAC2DA" transform="translate(203,78)"/>
<path d="M0 0 C7.26 0 14.52 0 22 0 C22 2.97 22 5.94 22 9 C17.05 9 12.1 9 7 9 C7 8.67 7 8.34 7 8 C10.3 8 13.6 8 17 8 C17.33 6.35 17.66 4.7 18 3 C17.34773437 3.01160156 16.69546875 3.02320312 16.0234375 3.03515625 C11.2238086 3.08470994 6.72215315 2.99413751 2 2 C2 2.66 2 3.32 2 4 C1.01 3.67 0.02 3.34 -1 3 C-0.67 2.01 -0.34 1.02 0 0 Z " fill="#98AABC" transform="translate(552,77)"/>
<path d="M0 0 C3.63 0 7.26 0 11 0 C11 2.97 11 5.94 11 9 C7.37 9 3.74 9 0 9 C0 6.03 0 3.06 0 0 Z " fill="#A9BED5" transform="translate(581,63)"/>
<path d="M0 0 C0.99 0.66 1.98 1.32 3 2 C5.22131423 2.3650791 5.22131423 2.3650791 7.66796875 2.4140625 C8.56064453 2.45273438 9.45332031 2.49140625 10.37304688 2.53125 C11.30181641 2.5621875 12.23058594 2.593125 13.1875 2.625 C14.12787109 2.66367188 15.06824219 2.70234375 16.03710938 2.7421875 C18.35775066 2.83642674 20.67884841 2.91930123 23 3 C23 5.97 23 8.94 23 12 C22.67 12 22.34 12 22 12 C22 9.36 22 6.72 22 4 C19.37335097 4.0867572 16.75021918 4.19357981 14.125 4.3125 C13.00544922 4.34633789 13.00544922 4.34633789 11.86328125 4.38085938 C9.900396 4.47811945 7.94671678 4.73042294 6 5 C5.01 6.485 5.01 6.485 4 8 C0.875 8.6875 0.875 8.6875 -2 9 C1.00778521 10.00259507 3.53820647 10.30314642 6.6875 10.5625 C7.68136719 10.64628906 8.67523438 10.73007813 9.69921875 10.81640625 C10.45847656 10.87699219 11.21773438 10.93757813 12 11 C12 11.33 12 11.66 12 12 C4.48439718 12.44427209 -0.8750049 12.66032236 -7 8 C-7.66 7.01 -8.32 6.02 -9 5 C-7.35 4.67 -5.7 4.34 -4 4 C-4 4.99 -4 5.98 -4 7 C-3.01 7 -2.02 7 -1 7 C-0.67 6.34 -0.34 5.68 0 5 C-0.33 4.01 -0.66 3.02 -1 2 C-0.67 1.34 -0.34 0.68 0 0 Z " fill="#8C9DAE" transform="translate(260,105)"/>
<path d="M0 0 C2.86688248 0.09096556 5.70300515 0.23767988 8.5625 0.4375 C9.36880859 0.48970703 10.17511719 0.54191406 11.00585938 0.59570312 C13.00421738 0.72577376 15.00215386 0.86229056 17 1 C17.33 1.99 17.66 2.98 18 4 C17.34 4.66 16.68 5.32 16 6 C13.5390625 5.94140625 13.5390625 5.94140625 10.625 5.5625 C7.09431652 5.11045832 4.40797252 4.8936203 1 6 C0.67 7.32 0.34 8.64 0 10 C-1 7 -1 7 -1 4 C-0.34 4 0.32 4 1 4 C1 3.34 1 2.68 1 2 C0.34 1.67 -0.32 1.34 -1 1 C-0.67 0.67 -0.34 0.34 0 0 Z " fill="#ABC2DA" transform="translate(209,94)"/>
<path d="M0 0 C0 2.31 0 4.62 0 7 C-5.28 7 -10.56 7 -16 7 C-15 4 -15 4 -12.9375 2.375 C-8.72728975 0.40426329 -4.66249457 0 0 0 Z " fill="#ABC2D8" transform="translate(282,78)"/>
<path d="M0 0 C0.83402344 -0.00257812 1.66804688 -0.00515625 2.52734375 -0.0078125 C3.39488281 -0.00007813 4.26242188 0.00765625 5.15625 0.015625 C6.45755859 0.00402344 6.45755859 0.00402344 7.78515625 -0.0078125 C8.61917969 -0.00523438 9.45320313 -0.00265625 10.3125 0 C11.07369141 0.00225586 11.83488281 0.00451172 12.61914062 0.00683594 C14.65625 0.265625 14.65625 0.265625 17.65625 2.265625 C18.87339128 2.83379802 20.10315856 3.37566252 21.34375 3.890625 C22.9834375 4.57125 22.9834375 4.57125 24.65625 5.265625 C24.65625 5.595625 24.65625 5.925625 24.65625 6.265625 C18.03125 6.390625 18.03125 6.390625 14.65625 5.265625 C12.26370424 5.04001824 9.86696877 4.85713905 7.46875 4.703125 C6.19644531 4.61933594 4.92414063 4.53554688 3.61328125 4.44921875 C2.63746094 4.38863281 1.66164063 4.32804687 0.65625 4.265625 C1.64625 3.605625 2.63625 2.945625 3.65625 2.265625 C0.02625 2.265625 -3.60375 2.265625 -7.34375 2.265625 C-4.23971635 0.19626923 -3.52474981 0.01044591 0 0 Z " fill="#2D69D3" transform="translate(65.34375,41.734375)"/>
<path d="M0 0 C-1.37909662 3.40844088 -2.60563494 4.66737535 -5.9375 6.1875 C-6.62714844 6.51105469 -7.31679688 6.83460937 -8.02734375 7.16796875 C-11.30982957 8.55246277 -13.96184476 9.15801537 -17.5 9.1875 C-18.66015625 9.20876953 -18.66015625 9.20876953 -19.84375 9.23046875 C-22 9 -22 9 -25 7 C-24.14535156 6.95101562 -23.29070313 6.90203125 -22.41015625 6.8515625 C-21.30542969 6.77679688 -20.20070313 6.70203125 -19.0625 6.625 C-17.40927734 6.52058594 -17.40927734 6.52058594 -15.72265625 6.4140625 C-14.37494141 6.20910156 -14.37494141 6.20910156 -13 6 C-12.67 5.34 -12.34 4.68 -12 4 C-10.66666667 3.66666667 -9.33333333 3.33333333 -8 3 C-7.154375 2.484375 -6.30875 1.96875 -5.4375 1.4375 C-3 0 -3 0 0 0 Z " fill="#1C5ACD" transform="translate(70,92)"/>
<path d="M0 0 C0.33 0 0.66 0 1 0 C1.33 5.61 1.66 11.22 2 17 C4.97 17.33 7.94 17.66 11 18 C11 18.33 11 18.66 11 19 C10.0925 19.144375 9.185 19.28875 8.25 19.4375 C5.18472163 19.88178992 5.18472163 19.88178992 3.0625 20.65625 C0.3425855 21.10956908 -0.86106938 20.37641184 -3.25 19.0625 C-3.95640625 18.68222656 -4.6628125 18.30195312 -5.390625 17.91015625 C-5.92171875 17.60980469 -6.4528125 17.30945313 -7 17 C-7 16.01 -7 15.02 -7 14 C-6.38125 14.20625 -5.7625 14.4125 -5.125 14.625 C-4.073125 14.810625 -4.073125 14.810625 -3 15 C-0.22957891 12.22957891 -0.60203894 10.23466195 -0.375 6.375 C-0.30023438 5.18648438 -0.22546875 3.99796875 -0.1484375 2.7734375 C-0.09945312 1.85820313 -0.05046875 0.94296875 0 0 Z " fill="#336CCC" transform="translate(43,80)"/>
<path d="M0 0 C0.99 0 1.98 0 3 0 C3.05790353 3.29159316 3.09356261 6.58305603 3.125 9.875 C3.15013672 11.28072266 3.15013672 11.28072266 3.17578125 12.71484375 C3.18222656 13.61074219 3.18867187 14.50664063 3.1953125 15.4296875 C3.20578613 16.25710449 3.21625977 17.08452148 3.22705078 17.93701172 C3 20 3 20 1 22 C0 21 0 21 -0.11352539 18.95874023 C-0.10828857 18.08419189 -0.10305176 17.20964355 -0.09765625 16.30859375 C-0.09443359 15.36435547 -0.09121094 14.42011719 -0.08789062 13.44726562 C-0.07951172 12.45404297 -0.07113281 11.46082031 -0.0625 10.4375 C-0.05798828 9.44041016 -0.05347656 8.44332031 -0.04882812 7.41601562 C-0.03700007 4.94395151 -0.02051849 2.47200482 0 0 Z " fill="#1B59CE" transform="translate(116,80)"/>
<path d="M0 0 C0 0.33 0 0.66 0 1 C-1.98 1.33 -3.96 1.66 -6 2 C-5.67 2.99 -5.34 3.98 -5 5 C-5.66 5 -6.32 5 -7 5 C-6.41196203 8.02419525 -5.77321882 11.01758453 -5 14 C-5.33 13.34 -5.66 12.68 -6 12 C-6.66 12 -7.32 12 -8 12 C-11 8.53846154 -11 8.53846154 -11 6 C-11.99 5.67 -12.98 5.34 -14 5 C-14 4.34 -14 3.68 -14 3 C-9.62850344 -0.66641647 -5.39741292 -0.31749488 0 0 Z " fill="#A3B7CA" transform="translate(215,93)"/>
<path d="M0 0 C-0.99 2.31 -1.98 4.62 -3 7 C-2.34 7.66 -1.68 8.32 -1 9 C-2.98 9 -4.96 9 -7 9 C-7 9.99 -7 10.98 -7 12 C-4.69 12 -2.38 12 0 12 C0 12.33 0 12.66 0 13 C-3.3 13 -6.6 13 -10 13 C-10 12.01 -10 11.02 -10 10 C-9.34 10 -8.68 10 -8 10 C-7.34 7.36 -6.68 4.72 -6 2 C-6.99 1.67 -7.98 1.34 -9 1 C-2.25 -1.125 -2.25 -1.125 0 0 Z " fill="#9BB8DC" transform="translate(70,114)"/>
<path d="M0 0 C0.103125 0.639375 0.20625 1.27875 0.3125 1.9375 C0.6528125 2.9584375 0.6528125 2.9584375 1 4 C1.99 4.33 2.98 4.66 4 5 C1.23735711 5.59732819 -1.16032769 6 -4 6 C-4.33 6.99 -4.66 7.98 -5 9 C-8.67566856 10.61729417 -13.07239675 10.06546005 -17 10 C-14.29039057 8.19359372 -12.08920859 7.22644884 -9.0625 6.125 C-5.24137517 4.64117634 -2.59075024 3.29731848 0 0 Z " fill="#9CBAD9" transform="translate(92,115)"/>
<path d="M0 0 C8.25 0.33 16.5 0.66 25 1 C21.25549268 2.87225366 20.14972809 3.24550933 16.234375 3.1953125 C15.34492187 3.18886719 14.45546875 3.18242187 13.5390625 3.17578125 C12.61867188 3.15902344 11.69828125 3.14226562 10.75 3.125 C9.81414062 3.11597656 8.87828125 3.10695312 7.9140625 3.09765625 C5.60911343 3.07413636 3.3046884 3.04126853 1 3 C0.67 2.01 0.34 1.02 0 0 Z " fill="#1458D1" transform="translate(59,134)"/>
<path d="M0 0 C1.5625 1.6875 1.5625 1.6875 3 4 C2.8125 6.6875 2.8125 6.6875 2 9 C1.01 9.495 1.01 9.495 0 10 C0 15.61 0 21.22 0 27 C-2.12109801 22.75780399 -2.30083365 19.77523698 -2.25 15.1875 C-2.25773437 14.50107422 -2.26546875 13.81464844 -2.2734375 13.10742188 C-2.25558673 8.39035462 -1.47578642 4.48006591 0 0 Z " fill="#99B8DC" transform="translate(29,75)"/>
<path d="M0 0 C0.33 0 0.66 0 1 0 C1.33 1.65 1.66 3.3 2 5 C2.33 5 2.66 5 3 5 C3 8.63 3 12.26 3 16 C2.34 15.34 1.68 14.68 1 14 C0.34 15.32 -0.32 16.64 -1 18 C-1.02707139 15.75006641 -1.04642829 13.50003905 -1.0625 11.25 C-1.07410156 9.99703125 -1.08570312 8.7440625 -1.09765625 7.453125 C-1.02021027 4.71463499 -0.82780815 2.58119707 0 0 Z " fill="#4375CB" transform="translate(70,72)"/>
<path d="M0 0 C1.37562854 1.28965176 2.70766393 2.62689293 4 4 C4 4.66 4 5.32 4 6 C-0.29 6 -4.58 6 -9 6 C-5.83922605 1.78563473 -4.8270487 1.28721299 0 0 Z " fill="#99AFC2" transform="translate(174,80)"/>
<path d="M0 0 C0.66 1.32 1.32 2.64 2 4 C-3.625 8.875 -3.625 8.875 -7 10 C-7 9.34 -7 8.68 -7 8 C-7.99 7.67 -8.98 7.34 -10 7 C-7.0173094 5.47551369 -4.181798 4.06059933 -1 3 C-0.67 2.01 -0.34 1.02 0 0 Z " fill="#2E66CB" transform="translate(90,112)"/>
<path d="M0 0 C0.99 0.33 1.98 0.66 3 1 C2.979375 1.94875 2.95875 2.8975 2.9375 3.875 C2.77448174 6.90666283 2.77448174 6.90666283 4 9 C4.598125 8.649375 5.19625 8.29875 5.8125 7.9375 C8 7 8 7 11 8 C5.375 12 5.375 12 2 12 C0.86235649 7.73383684 0 4.43513689 0 0 Z " fill="#9ABADD" transform="translate(57,84)"/>
<path d="M0 0 C1.74216797 0.15275391 1.74216797 0.15275391 3.51953125 0.30859375 C4.39996094 0.39238281 5.28039062 0.47617187 6.1875 0.5625 C6.1875 0.8925 6.1875 1.2225 6.1875 1.5625 C-0.19476945 2.38601864 -6.37994599 2.68336218 -12.8125 2.5625 C-12.4825 1.9025 -12.1525 1.2425 -11.8125 0.5625 C-7.79324976 -0.66458371 -4.14784891 -0.37707717 0 0 Z " fill="#1659CC" transform="translate(68.8125,43.4375)"/>
<path d="M0 0 C2 2 2 2 2 6 C0.35 6.66 -1.3 7.32 -3 8 C-3.99 7.01 -4.98 6.02 -6 5 C-5.67 4.01 -5.34 3.02 -5 2 C-3 1.375 -3 1.375 -1 1 C-0.67 0.67 -0.34 0.34 0 0 Z " fill="#ADC4DA" transform="translate(442,87)"/>
<path d="M0 0 C0 0.99 0 1.98 0 3 C-1.98 3.99 -1.98 3.99 -4 5 C-3.67 5.99 -3.34 6.98 -3 8 C-5.475 7.01 -5.475 7.01 -8 6 C-6.24081631 1.94034532 -4.71412298 0 0 0 Z " fill="#225ECC" transform="translate(85,55)"/>
<path d="M0 0 C0.33 0.66 0.66 1.32 1 2 C1.66 2.33 2.32 2.66 3 3 C2.525625 3.804375 2.05125 4.60875 1.5625 5.4375 C-0.29359618 9.66939929 -0.70559978 13.43172078 -1 18 C-1.33 18 -1.66 18 -2 18 C-2.054138 15.75026553 -2.09285491 13.50015617 -2.125 11.25 C-2.14820313 9.99703125 -2.17140625 8.7440625 -2.1953125 7.453125 C-2.01537302 4.27179508 -1.68998582 2.63478104 0 0 Z " fill="#99AABB" transform="translate(500,86)"/>
<path d="M0 0 C0.33 0.66 0.66 1.32 1 2 C1.66 2 2.32 2 3 2 C3.33 3.98 3.66 5.96 4 8 C-0.455 7.01 -0.455 7.01 -5 6 C-4.01 5.01 -3.02 4.02 -2 3 C-1.34 3 -0.68 3 0 3 C0 2.01 0 1.02 0 0 Z " fill="#9AB7DA" transform="translate(85,55)"/>
<path d="M0 0 C4.62 0.66 9.24 1.32 14 2 C14 2.33 14 2.66 14 3 C13.0925 3.144375 12.185 3.28875 11.25 3.4375 C8.16447382 3.88795806 8.16447382 3.88795806 5.9375 4.6875 C3.20414069 5.1283644 1.45484598 4.15923283 -1 3 C-0.67 2.01 -0.34 1.02 0 0 Z " fill="#2D64CA" transform="translate(44,111)"/>
<path d="M0 0 C0 0.66 0 1.32 0 2 C-2.3396669 3.16983345 -3.83391527 3.1661241 -6.4375 3.1875 C-7.61119141 3.20876953 -7.61119141 3.20876953 -8.80859375 3.23046875 C-11 3 -11 3 -14 1 C-4.58997722 -0.14806378 -4.58997722 -0.14806378 0 0 Z " fill="#1956CF" transform="translate(63,113)"/>
<path d="M0 0 C0.66 0.33 1.32 0.66 2 1 C1.4375 2.875 1.4375 2.875 0 5 C-3.625 6.25 -3.625 6.25 -7 7 C-7 6.34 -7 5.68 -7 5 C-7.66 4.67 -8.32 4.34 -9 4 C-8.43410156 3.79503906 -7.86820313 3.59007813 -7.28515625 3.37890625 C-6.55167969 3.10949219 -5.81820312 2.84007813 -5.0625 2.5625 C-4.33160156 2.29566406 -3.60070312 2.02882813 -2.84765625 1.75390625 C-1.01694322 1.14613052 -1.01694322 1.14613052 0 0 Z " fill="#2D66CD" transform="translate(70,108)"/>
<path d="M0 0 C1.98 0.66 3.96 1.32 6 2 C5.67 3.32 5.34 4.64 5 6 C5.99 6.33 6.98 6.66 8 7 C7.01 7 6.02 7 5 7 C4.34 8.32 3.68 9.64 3 11 C1.875 9.25 1.875 9.25 1 7 C1.875 4.75 1.875 4.75 3 3 C2.01 2.01 1.02 1.02 0 0 Z " fill="#326BCD" transform="translate(79,94)"/>
<path d="M0 0 C0 1.98 0 3.96 0 6 C0.66 6 1.32 6 2 6 C1.67 6.66 1.34 7.32 1 8 C-0.65 7.67 -2.3 7.34 -4 7 C-4 5.02 -4 3.04 -4 1 C-1 0 -1 0 0 0 Z " fill="#AAC2D9" transform="translate(508,98)"/>
<path d="M0 0 C0.66 0 1.32 0 2 0 C1.39009109 3.55780196 0.4216319 6.6828589 -1 10 C-1.33 9.34 -1.66 8.68 -2 8 C-2.66 8 -3.32 8 -4 8 C-2.87548273 5.0280615 -1.77706209 2.66559313 0 0 Z " fill="#2663CE" transform="translate(46,64)"/>
<path d="M0 0 C-1 3 -1 3 -2.875 4.1875 C-5 5 -5 5 -8 5 C-7.625 3.0625 -7.625 3.0625 -7 1 C-4.53721199 -0.231394 -2.7204945 -0.07159196 0 0 Z " fill="#1E5DD0" transform="translate(93,131)"/>
<path d="M0 0 C1.32 0 2.64 0 4 0 C4 1.98 4 3.96 4 6 C2.68 5.67 1.36 5.34 0 5 C-0.5625 3.0625 -0.5625 3.0625 -1 1 C-0.67 0.67 -0.34 0.34 0 0 Z " fill="#ACC2DA" transform="translate(569,110)"/>
<path d="M0 0 C1.32 0 2.64 0 4 0 C4.68707555 2.49064888 5 4.37886292 5 7 C3.35 7 1.7 7 0 7 C0 4.69 0 2.38 0 0 Z " fill="#AEC3DA" transform="translate(256,105)"/>
<path d="M0 0 C0.99 0.33 1.98 0.66 3 1 C4.375 3.8125 4.375 3.8125 5 7 C4.01 8.32 3.02 9.64 2 11 C1.01 7.7 0.02 4.4 -1 1 C-0.67 0.67 -0.34 0.34 0 0 Z " fill="#2D65CA" transform="translate(89,101)"/>
<path d="M0 0 C0.33 0 0.66 0 1 0 C1 2.31 1 4.62 1 7 C1.66 7.33 2.32 7.66 3 8 C1.35 8.33 -0.3 8.66 -2 9 C-1.125 2.25 -1.125 2.25 0 0 Z " fill="#9EB9D7" transform="translate(76,65)"/>
<path d="M0 0 C2 2 2 2 2.125 5.625 C2.08375 6.73875 2.0425 7.8525 2 9 C1.34 9 0.68 9 0 9 C-0.66 7.02 -1.32 5.04 -2 3 C-1.34 3 -0.68 3 0 3 C0 2.01 0 1.02 0 0 Z " fill="#2D67CB" transform="translate(104,95)"/>
<path d="M0 0 C5.75 -0.125 5.75 -0.125 8 1 C8 1.99 8 2.98 8 4 C8.66 4 9.32 4 10 4 C9.67 4.66 9.34 5.32 9 6 C6.03 4.35 3.06 2.7 0 1 C0 0.67 0 0.34 0 0 Z " fill="#99B8DA" transform="translate(76,89)"/>
<path d="M0 0 C6.52307692 0.61538462 6.52307692 0.61538462 8.9375 2.5625 C9.288125 3.036875 9.63875 3.51125 10 4 C8.68 4 7.36 4 6 4 C5.67 4.66 5.34 5.32 5 6 C3.35 4.02 1.7 2.04 0 0 Z " fill="#9CB9D9" transform="translate(95,67)"/>
<path d="M0 0 C0.99 0.33 1.98 0.66 3 1 C3.33 1.99 3.66 2.98 4 4 C3.34 4.66 2.68 5.32 2 6 C1.34 7.32 0.68 8.64 0 10 C0 6.7 0 3.4 0 0 Z " fill="#8E9FB0" transform="translate(436,92)"/>
<path d="M0 0 C2.31 0.66 4.62 1.32 7 2 C7 2.33 7 2.66 7 3 C3.37 3.33 -0.26 3.66 -4 4 C-2.68 2.68 -1.36 1.36 0 0 Z " fill="#9FBBDA" transform="translate(72,92)"/>
<path d="M0 0 C0.433125 0.474375 0.86625 0.94875 1.3125 1.4375 C3.02309613 3.23686957 3.02309613 3.23686957 6 4 C6 4.66 6 5.32 6 6 C4.02 6 2.04 6 0 6 C0 4.02 0 2.04 0 0 Z " fill="#1A5ACE" transform="translate(70,85)"/>
<path d="M0 0 C6.75 0.75 6.75 0.75 9 3 C5.23375329 4.25541557 3.62811066 3.37061958 0 2 C0 1.34 0 0.68 0 0 Z " fill="#A0BCD3" transform="translate(80,73)"/>
<path d="M0 0 C3 1 3 1 4.75 3.375 C6 6 6 6 5 9 C4.731875 8.38125 4.46375 7.7625 4.1875 7.125 C3.04443152 4.7004767 3.04443152 4.7004767 0 3 C0 2.01 0 1.02 0 0 Z " fill="#9BB8DA" transform="translate(105,63)"/>
<path d="M0 0 C-2 3 -2 3 -4.125 3.6875 C-4.74375 3.790625 -5.3625 3.89375 -6 4 C-6 3.34 -6 2.68 -6 2 C-6.99 1.67 -7.98 1.34 -9 1 C-2.25 -1.125 -2.25 -1.125 0 0 Z " fill="#91AFD8" transform="translate(70,114)"/>
<path d="M0 0 C2 2 2 2 2 5 C1.34 5 0.68 5 0 5 C-0.33 6.32 -0.66 7.64 -1 9 C-1.66 9 -2.32 9 -3 9 C-2.01 6.03 -1.02 3.06 0 0 Z " fill="#93B6DB" transform="translate(116,106)"/>
<path d="M0 0 C3.96 0 7.92 0 12 0 C12 0.33 12 0.66 12 1 C11.31292969 1.04898438 10.62585938 1.09796875 9.91796875 1.1484375 C8.56638672 1.26058594 8.56638672 1.26058594 7.1875 1.375 C6.29417969 1.44460937 5.40085937 1.51421875 4.48046875 1.5859375 C1.75601501 1.86645036 1.75601501 1.86645036 -1 4 C-0.67 2.68 -0.34 1.36 0 0 Z " fill="#0B0F16" transform="translate(340,101)"/>
<path d="M0 0 C0.99 0.33 1.98 0.66 3 1 C2.34 2.98 1.68 4.96 1 7 C0.01 6.34 -0.98 5.68 -2 5 C-1.34 3.35 -0.68 1.7 0 0 Z " fill="#ADC3DA" transform="translate(332,95)"/>
<path d="M0 0 C0.33 1.32 0.66 2.64 1 4 C2.32 4.33 3.64 4.66 5 5 C4.38125 5.103125 3.7625 5.20625 3.125 5.3125 C0.63473516 5.87525373 0.63473516 5.87525373 -1 9 C-1.09765625 2.84765625 -1.09765625 2.84765625 -1 1 C-0.67 0.67 -0.34 0.34 0 0 Z " fill="#1358D3" transform="translate(72,71)"/>
<path d="M0 0 C2 3 2 3 1.625 5.6875 C1.41875 6.450625 1.2125 7.21375 1 8 C0.01 7.67 -0.98 7.34 -2 7 C-1.125 2.25 -1.125 2.25 0 0 Z " fill="#9CB6D6" transform="translate(47,67)"/>
<path d="M0 0 C0.66 0.33 1.32 0.66 2 1 C1.67 1.66 1.34 2.32 1 3 C1.66 3.33 2.32 3.66 3 4 C2.01 4.66 1.02 5.32 0 6 C-0.99 5.01 -1.98 4.02 -3 3 C-2.01 2.01 -1.02 1.02 0 0 Z " fill="#3369CC" transform="translate(101,122)"/>
<path d="M0 0 C0.66 0.33 1.32 0.66 2 1 C2.625 4.0625 2.625 4.0625 3 7 C1.68 7.33 0.36 7.66 -1 8 C-0.67 5.36 -0.34 2.72 0 0 Z " fill="#135AD4" transform="translate(92,107)"/>
<path d="M0 0 C0.66 0.66 1.32 1.32 2 2 C1.625 5.125 1.625 5.125 1 8 C0.01 7.01 -0.98 6.02 -2 5 C-1.34 3.35 -0.68 1.7 0 0 Z " fill="#3168C9" transform="translate(31,63)"/>
</svg>
