<?xml version="1.0" encoding="UTF-8"?>
<svg version="1.1" xmlns="http://www.w3.org/2000/svg" width="499" height="128">
<path d="M0 0 C5.56348842 0.15805365 5.56348842 0.15805365 8 1.80859375 C9.0625 3.49609375 9.0625 3.49609375 10.0625 6.49609375 C10.805 5.87734375 11.5475 5.25859375 12.3125 4.62109375 C19.02640789 -0.56692598 25.86997769 -0.46581434 34.0625 0.49609375 C43.9095255 4.19014474 43.9095255 4.19014474 46.0625 8.49609375 C46.7225 8.49609375 47.3825 8.49609375 48.0625 8.49609375 C48.3925 7.83609375 48.7225 7.17609375 49.0625 6.49609375 C49.7225 6.49609375 50.3825 6.49609375 51.0625 6.49609375 C51.0625 5.83609375 51.0625 5.17609375 51.0625 4.49609375 C58.8982017 -0.37945398 67.15989654 -0.52492918 76.0625 0.49609375 C83.7021318 2.73837529 90.20883317 7.58247934 94.22290039 14.49414062 C98.10720771 23.60779746 97.70167586 33.11834914 97.63891602 42.85009766 C97.6249335 45.88553113 97.65934423 48.9179453 97.69726562 51.953125 C97.69821593 53.89192783 97.69636277 55.83073452 97.69140625 57.76953125 C97.70466446 58.67166351 97.71792267 59.57379578 97.73158264 60.50326538 C97.66547994 64.96016483 97.50338343 66.91131571 94.74584961 70.56884766 C91.23048453 73.09366723 89.30153748 73.18975443 85.0625 72.49609375 C81.86993791 70.14367958 80.72505454 68.32953164 80.0625 64.49609375 C80.00299965 62.06581534 80.00167283 59.63390107 80.03515625 57.203125 C80.04781275 55.75325768 80.06017294 54.30338775 80.07226562 52.85351562 C80.09695134 50.58707365 80.12481931 48.32077092 80.15844727 46.05444336 C80.59386593 32.39642349 80.59386593 32.39642349 76.5 19.55859375 C73.01822339 16.61247508 69.60634657 15.64597758 65.0625 15.49609375 C61.71044393 16.67073576 61.71044393 16.67073576 59.0625 18.49609375 C58.0725 18.82609375 57.0825 19.15609375 56.0625 19.49609375 C53.72970092 30.46567454 53.67373613 41.31625331 53.53076172 52.47265625 C53.49704474 54.86608672 53.4519997 57.25911792 53.40625 59.65234375 C53.4009729 60.38151001 53.3956958 61.11067627 53.39025879 61.86193848 C53.31814543 65.52672617 53.2074578 68.44000343 51.0625 71.49609375 C48.00556678 73.02456036 45.43265453 72.7285182 42.0625 72.49609375 C38.8774643 70.73594244 38.22953028 69.99718459 37.0625 66.49609375 C36.93209162 63.71496539 36.85314253 60.95435127 36.81640625 58.171875 C36.78344914 56.4863233 36.75023783 54.80077655 36.71679688 53.11523438 C36.66955354 50.4669151 36.62514927 47.81861315 36.58569336 45.17016602 C36.54566355 42.60801852 36.49417905 40.04628747 36.44140625 37.484375 C36.4329921 36.70387283 36.42457794 35.92337067 36.41590881 35.11921692 C36.27508877 28.76868019 35.66536791 22.90039562 32.0625 17.49609375 C27.7784676 15.66252788 24.17056136 15.11977102 19.75 16.62109375 C16.00836305 19.23153813 13.5252687 21.10778764 12.0625 25.49609375 C11.9736862 26.86609341 11.93740142 28.23991782 11.93652344 29.61279297 C11.93271667 30.4372995 11.92890991 31.26180603 11.92498779 32.11129761 C11.92396057 32.99882721 11.92293335 33.88635681 11.921875 34.80078125 C11.90354976 36.6823038 11.88397971 38.56381456 11.86328125 40.4453125 C11.83429564 43.41019625 11.81249947 46.37432072 11.81201172 49.33935547 C11.80867676 52.2021819 11.7741292 55.06325871 11.734375 57.92578125 C11.7414447 58.80926239 11.7485144 59.69274353 11.75579834 60.60299683 C11.66854339 65.01911413 11.48008807 66.94063282 8.75097656 70.57080078 C5.30065228 73.04167413 3.21883552 72.9666223 -0.9375 72.49609375 C-1.5975 72.16609375 -2.2575 71.83609375 -2.9375 71.49609375 C-2.9375 70.50609375 -2.9375 69.51609375 -2.9375 68.49609375 C-3.5975 68.49609375 -4.2575 68.49609375 -4.9375 68.49609375 C-5.00702789 60.22064544 -5.06032519 51.94531928 -5.09293652 43.66965103 C-5.10858879 39.82686288 -5.12981873 35.98427465 -5.16381836 32.14160156 C-5.19642795 28.43279812 -5.21435631 24.72418691 -5.22213173 21.01525116 C-5.22767241 19.60065434 -5.23849212 18.18606797 -5.25469017 16.77155304 C-5.27648301 14.78953827 -5.27772556 12.80732985 -5.27807617 10.82519531 C-5.28473801 9.69712463 -5.29139984 8.56905396 -5.29826355 7.40679932 C-4.84367821 3.73912258 -3.79312244 0.97122288 0 0 Z " fill="#FDF7EF" transform="translate(252.9375,39.50390625)"/>
<path d="M0 0 C1.90625 0.47265625 1.90625 0.47265625 4.40625 2.97265625 C4.90125 3.79765625 5.39625 4.62265625 5.90625 5.47265625 C6.463125 5.01890625 7.02 4.56515625 7.59375 4.09765625 C14.35052803 -0.65034993 21.93155732 -0.49051032 29.90625 0.47265625 C33.65488978 2.01371119 36.7092763 4.00459255 39.90625 6.47265625 C40.89625 7.13265625 41.88625 7.79265625 42.90625 8.47265625 C44.22625 7.81265625 45.54625 7.15265625 46.90625 6.47265625 C46.90625 5.81265625 46.90625 5.15265625 46.90625 4.47265625 C54.54022206 -0.16151649 62.15111192 -0.48538161 70.90625 0.47265625 C75.65831862 1.8200616 80.30355188 4.02659718 83.90625 7.47265625 C83.90625 8.13265625 83.90625 8.79265625 83.90625 9.47265625 C84.56625 9.47265625 85.22625 9.47265625 85.90625 9.47265625 C91.51100411 16.82889602 92.22864512 23.2585153 92.27734375 32.19921875 C92.28637222 33.22445648 92.2954007 34.24969421 92.30470276 35.30599976 C92.31916866 37.46601454 92.32808286 39.62607277 92.33178711 41.78613281 C92.34373622 45.09384066 92.39300286 48.39971371 92.44335938 51.70703125 C92.45281826 53.80858467 92.46005585 55.9101495 92.46484375 58.01171875 C92.48437607 59.00031891 92.50390839 59.98891907 92.52403259 61.00747681 C92.47903408 67.82868509 92.47903408 67.82868509 89.56665039 71.10302734 C86.3788512 72.74417201 84.44694545 72.93448609 80.90625 72.47265625 C79.42125 71.48265625 79.42125 71.48265625 77.90625 70.47265625 C77.90625 69.81265625 77.90625 69.15265625 77.90625 68.47265625 C77.24625 68.47265625 76.58625 68.47265625 75.90625 68.47265625 C75.89166748 67.23177246 75.87708496 65.99088867 75.86206055 64.71240234 C75.80394277 60.09395004 75.72671053 55.47597841 75.64379883 50.85791016 C75.61061287 48.86189596 75.58256132 46.86578936 75.55981445 44.86962891 C75.52615207 41.99471785 75.47383023 39.12064882 75.41796875 36.24609375 C75.41157883 35.35836273 75.4051889 34.47063171 75.39860535 33.55599976 C75.27729443 28.40539306 74.56178204 25.02058057 71.90625 20.47265625 C71.90625 19.81265625 71.90625 19.15265625 71.90625 18.47265625 C69.91570124 17.77827878 67.91369615 17.11655407 65.90625 16.47265625 C65.101875 16.20453125 64.2975 15.93640625 63.46875 15.66015625 C59.53127155 15.37204807 57.27429584 16.47677724 53.90625 18.47265625 C50.1708793 25.19632351 49.77010131 31.58705187 49.73046875 39.1328125 C49.70728576 40.83009074 49.68316906 42.52735643 49.65820312 44.22460938 C49.62301229 46.88656225 49.59368529 49.54804714 49.58032227 52.21020508 C49.56486246 54.78913904 49.52469095 57.36673245 49.48046875 59.9453125 C49.48237717 60.7401857 49.48428558 61.5350589 49.48625183 62.35401917 C49.40611684 65.97105568 49.22341851 68.05690505 46.99755859 70.97460938 C43.46813644 73.50280624 41.16734947 72.94611175 36.90625 72.47265625 C34.23193511 70.66102358 33.94704641 69.59504548 32.90625 66.47265625 C32.8081618 65.13888009 32.76088134 63.80094414 32.74853516 62.46362305 C32.73827301 61.66236496 32.72801086 60.86110687 32.71743774 60.03556824 C32.71013641 59.17304947 32.70283508 58.3105307 32.6953125 57.421875 C32.66724056 55.5904859 32.63857607 53.75910581 32.609375 51.92773438 C32.56815232 49.04435511 32.53125903 46.16114335 32.50488281 43.27758789 C32.47720112 40.49199823 32.43132767 37.70716948 32.3828125 34.921875 C32.37955963 34.06542892 32.37630676 33.20898285 32.37295532 32.32658386 C32.25059573 26.33866244 31.30803581 21.87444206 26.90625 17.47265625 C22.17652327 15.78919419 20.03042966 15.15413868 15.15625 16.53515625 C11.34360525 18.80807908 8.6669063 21.03357421 7.31355286 25.37316895 C6.89908703 27.50957858 6.77510053 29.45229009 6.7644043 31.62695312 C6.75736984 32.43459106 6.75033539 33.242229 6.74308777 34.07434082 C6.73892349 34.93797241 6.73475922 35.801604 6.73046875 36.69140625 C6.70728085 38.52865742 6.68316394 40.36589706 6.65820312 42.203125 C6.62302857 45.09334158 6.59370152 47.98313007 6.58032227 50.87353516 C6.56486621 53.66751399 6.52468743 56.46025409 6.48046875 59.25390625 C6.48237717 60.11753784 6.48428558 60.98116943 6.48625183 61.87097168 C6.36453104 67.83220558 6.36453104 67.83220558 4.08520508 71.01757812 C0.85823206 73.17250913 -1.29937035 73.00520076 -5.09375 72.47265625 C-7.77696228 70.83300781 -7.77696228 70.83300781 -10.09375 68.47265625 C-10.72193909 65.58886719 -10.72193909 65.58886719 -10.72485352 62.20703125 C-10.73738663 60.93891602 -10.74991974 59.67080078 -10.76283264 58.36425781 C-10.7505643 56.98371351 -10.73714427 55.60317904 -10.72265625 54.22265625 C-10.72348518 52.80305805 -10.72594547 51.38345994 -10.72996521 49.96386719 C-10.73282164 46.99124194 -10.718139 44.01937082 -10.69067383 41.046875 C-10.65658967 37.24003029 -10.66260978 33.43453377 -10.6813364 29.62762451 C-10.6919145 26.69698893 -10.68296156 23.76666608 -10.66795158 20.83605957 C-10.66277514 19.43266733 -10.66324509 18.02924236 -10.66949654 16.62585449 C-10.67495735 14.66328703 -10.65170416 12.7007033 -10.62719727 10.73828125 C-10.62099869 9.62227539 -10.61480011 8.50626953 -10.6084137 7.35644531 C-9.51647184 1.23802274 -5.62156563 -0.2412239 0 0 Z " fill="#FDF7EF" transform="translate(144.09375,39.52734375)"/>
<path d="M0 0 C0.86496094 0.43054688 1.72992188 0.86109375 2.62109375 1.3046875 C6.6842708 3.39803632 9.54064175 5.03353501 12 9 C12.48947291 12.91578329 12.58879747 15.08147594 10.4375 18.4375 C6.88176622 20.71681652 5.2028403 20.66711751 1 20 C-1.89782223 18.6184801 -4.6531878 17.07268486 -7.43359375 15.46875 C-14.58971427 11.37331421 -20.98425831 11.36258068 -28.9375 12.625 C-36.94466954 14.89903615 -43.03154599 19.47890411 -48 26 C-48.66 26 -49.32 26 -50 26 C-50.13277344 26.59039062 -50.26554687 27.18078125 -50.40234375 27.7890625 C-51 30 -51 30 -52.5625 33.375 C-55.58915604 41.47619876 -54.99902906 50.37083459 -52 58.375 C-47.56612409 67.70228518 -40.63119014 73.45241665 -31 77 C-21.16628393 79.90289076 -13.96272504 78.80926709 -5 74 C-4.34 74 -3.68 74 -3 74 C-3 73.34 -3 72.68 -3 72 C-1.68 72 -0.36 72 1 72 C1 71.34 1 70.68 1 70 C3.31 70 5.62 70 8 70 C8 70.66 8 71.32 8 72 C8.66 72 9.32 72 10 72 C10 72.66 10 73.32 10 74 C10.66 74 11.32 74 12 74 C12 76.64 12 79.28 12 82 C11.34 82 10.68 82 10 82 C10 82.66 10 83.32 10 84 C6.53846154 87 6.53846154 87 4 87 C4 87.66 4 88.32 4 89 C2.68 89 1.36 89 0 89 C0 89.66 0 90.32 0 91 C-7.14028447 94.82637254 -14.11828393 95.43598752 -22.0625 95.5 C-22.98369629 95.51804687 -23.90489258 95.53609375 -24.85400391 95.5546875 C-34.07978796 95.47587674 -41.42583765 92.35423035 -49.125 87.375 C-50.05570313 86.78460938 -50.98640625 86.19421875 -51.9453125 85.5859375 C-52.62335937 85.06257813 -53.30140625 84.53921875 -54 84 C-54 83.34 -54 82.68 -54 82 C-54.66 82 -55.32 82 -56 82 C-56 81.34 -56 80.68 -56 80 C-56.99 79.67 -57.98 79.34 -59 79 C-68.27023994 69.31237959 -71.80657238 55.40071536 -71.58959961 42.30004883 C-70.94326181 30.15364461 -66.40852671 18.92825904 -58 10 C-57.34 10 -56.68 10 -56 10 C-55.65195312 9.10474609 -55.65195312 9.10474609 -55.296875 8.19140625 C-53.66696225 5.43724646 -52.01964517 4.51116203 -49.25 2.9375 C-48.35152344 2.42574219 -47.45304687 1.91398437 -46.52734375 1.38671875 C-45.69332031 0.92910156 -44.85929687 0.47148437 -44 0 C-42.948125 -0.5775 -41.89625 -1.155 -40.8125 -1.75 C-27.73267282 -7.56325652 -12.45446887 -6.87531766 0 0 Z " fill="#FDF7EF" transform="translate(110,17)"/>
<path d="M0 0 C2.5625 1.6875 2.5625 1.6875 4 3 C4.433125 2.195625 4.86625 1.39125 5.3125 0.5625 C7 -2 7 -2 10 -3 C11.9375 -3.23828125 11.9375 -3.23828125 14 -3.3125 C14.680625 -3.34988281 15.36125 -3.38726562 16.0625 -3.42578125 C18 -3 18 -3 19.59683228 -1.36499023 C21.40513786 1.68284573 21.38062255 3.73024759 21.38818359 7.265625 C21.39764008 8.53374023 21.40709656 9.80185547 21.4168396 11.10839844 C21.41146973 12.48893548 21.40531674 13.86946966 21.3984375 15.25 C21.40045922 16.66959787 21.40337147 18.08919474 21.40713501 19.50878906 C21.41155382 22.48122057 21.4051419 25.45338127 21.39111328 28.42578125 C21.37402127 32.23241736 21.38386488 36.0384189 21.40183067 39.84503174 C21.41268071 42.77560186 21.40921665 45.70602199 21.4014473 48.63659668 C21.39944865 50.03999914 21.40189282 51.4434153 21.40888596 52.84680176 C21.41651956 54.80932346 21.40281805 56.77189302 21.38818359 58.734375 C21.38579681 59.85038086 21.38341003 60.96638672 21.38095093 62.11621094 C20.95718405 65.32411571 20.2464841 66.70700987 18 69 C14.95451365 69.76277374 12.07715131 69.56757583 9 69 C6.49839182 67.12379387 5.38054348 65.76108697 4 63 C3.34 63 2.68 63 2 63 C2 63.66 2 64.32 2 65 C-6.23687353 69.79236278 -14.67916497 70.18504504 -24 69 C-27.57100088 68.02532682 -30.759503 66.78346764 -34 65 C-34 64.34 -34 63.68 -34 63 C-34.8971875 62.814375 -34.8971875 62.814375 -35.8125 62.625 C-38 62 -38 62 -41 60 C-41 59.34 -41 58.68 -41 58 C-41.66 58 -42.32 58 -43 58 C-49.98518589 48.26357344 -52.8456237 39.84273971 -51.53515625 27.98828125 C-50.11737748 20.07148739 -46.66279071 12.79222593 -41 7 C-40.34 7 -39.68 7 -39 7 C-39 6.34 -39 5.68 -39 5 C-37.0234375 3.5625 -37.0234375 3.5625 -34.375 2 C-33.51648438 1.484375 -32.65796875 0.96875 -31.7734375 0.4375 C-21.99538849 -4.63055921 -9.96518041 -4.86213198 0 0 Z M-29 17.5625 C-31.21143887 19.7321912 -31.21143887 19.7321912 -31 22 C-31.66 22 -32.32 22 -33 22 C-35.74976122 28.53068291 -35.86806118 34.85327824 -34 41.625 C-30.75630123 47.09874167 -26.71619909 51.55521325 -21.0625 54.5625 C-13.17720414 55.68897084 -8.1618162 54.00146871 -1.65234375 49.47265625 C-0.83443359 48.74369141 -0.83443359 48.74369141 0 48 C0 47.34 0 46.68 0 46 C0.66 46 1.32 46 2 46 C5.77352577 39.28466434 5.39838109 31.37328212 4 24 C3.06213652 21.61259459 3.06213652 21.61259459 2 20 C1.34 20 0.68 20 0 20 C-0.495 18.515 -0.495 18.515 -1 17 C-10.07807582 10.43288132 -20.39771501 10.2147149 -29 17.5625 Z " fill="#FDF7F0" transform="translate(409,43)"/>
<path d="M0 0 C0.66 0.33 1.32 0.66 2 1 C2 1.66 2 2.32 2 3 C2.66 3 3.32 3 4 3 C4 3.99 4 4.98 4 6 C5.32 6.33 6.64 6.66 8 7 C8 7.66 8 8.32 8 9 C13.91048138 8.79463837 13.91048138 8.79463837 18.6875 5.625 C19.450625 4.75875 20.21375 3.8925 21 3 C24.75426505 0.20836701 27.32324346 -0.59703275 32 0 C34.1484375 1.21875 34.1484375 1.21875 36 3 C36.83332286 6.39076197 36.62621711 9.57777844 36 13 C33.9375 15.8125 33.9375 15.8125 31 18 C30.43410156 18.4640625 29.86820313 18.928125 29.28515625 19.40625 C26.44671367 21.64222227 24.71375433 22.92406869 21.0625 23.3125 C20.381875 23.209375 19.70125 23.10625 19 23 C19 23.66 19 24.32 19 25 C8.18554228 25.76277523 0.38317733 24.09053321 -8 17 C-8 16.34 -8 15.68 -8 15 C-8.66 15 -9.32 15 -10 15 C-12.10178633 11.58459721 -12.56821226 8.97748585 -12 5 C-8.48936888 0.10639298 -5.90378005 -0.66835246 0 0 Z " fill="#FCF7F0" transform="translate(82,52)"/>
<path d="M0 0 C2.9375 2.0625 2.9375 2.0625 5 5 C5.5818272 8.49096318 5.6143926 11.77121481 4 15 C3.34 15 2.68 15 2 15 C2 15.66 2 16.32 2 17 C-1.1796528 19.11976853 -3.19739392 19.5432532 -6.99609375 19.4453125 C-9 19 -9 19 -11.9375 16.375 C-15.16695652 11.09043478 -15.16695652 11.09043478 -15 7 C-11.45311958 -0.00725157 -7.874897 -1.90083721 0 0 Z M-6 2 C-6.66 2.66 -7.32 3.32 -8 4 C-5.69 4 -3.38 4 -1 4 C-1.66 3.34 -2.32 2.68 -3 2 C-3.99 2 -4.98 2 -6 2 Z M-10 5 C-11.33187793 6.11166864 -11.33187793 6.11166864 -11.1875 8.9375 C-11.33278733 12.10892859 -11.33278733 12.10892859 -9 14 C-9 11.03 -9 8.06 -9 5 C-9.33 5 -9.66 5 -10 5 Z M0 5 C-0.68493373 7.85778033 -0.68493373 7.85778033 -1 11 C-0.01 12.485 -0.01 12.485 1 14 C1.66 12.02 2.32 10.04 3 8 C2.01 7.01 1.02 6.02 0 5 Z M-5 11 C-5.66 12.65 -6.32 14.3 -7 16 C-5.35 16 -3.7 16 -2 16 C-2.66 14.35 -3.32 12.7 -4 11 C-4.33 11 -4.66 11 -5 11 Z " fill="#FEF7EA" transform="translate(454,93)"/>
<path d="M0 0 C0.66 0.33 1.32 0.66 2 1 C2 12.88 2 24.76 2 37 C1.34 37 0.68 37 0 37 C-0.80862781 32.74526868 -1.12846318 28.72303841 -1.1328125 24.39453125 C-1.13410156 23.16412109 -1.13539063 21.93371094 -1.13671875 20.66601562 C-1.13091797 18.75852539 -1.13091797 18.75852539 -1.125 16.8125 C-1.12886719 15.52923828 -1.13273437 14.24597656 -1.13671875 12.92382812 C-1.13542969 11.69728516 -1.13414062 10.47074219 -1.1328125 9.20703125 C-1.13168457 8.0878833 -1.13055664 6.96873535 -1.12939453 5.81567383 C-1 3 -1 3 0 0 Z " fill="#FCF2DD" transform="translate(262,69)"/>
<path d="M0 0 C1.134375 0.020625 2.26875 0.04125 3.4375 0.0625 C3.4375 1.3825 3.4375 2.7025 3.4375 4.0625 C2.7775 4.0625 2.1175 4.0625 1.4375 4.0625 C1.4375 3.4025 1.4375 2.7425 1.4375 2.0625 C0.4475 2.7225 -0.5425 3.3825 -1.5625 4.0625 C-0.9025 4.7225 -0.2425 5.3825 0.4375 6.0625 C-0.5525 6.0625 -1.5425 6.0625 -2.5625 6.0625 C-2.5625 7.0525 -2.5625 8.0425 -2.5625 9.0625 C-3.2225 9.0625 -3.8825 9.0625 -4.5625 9.0625 C-4.66015625 2.91015625 -4.66015625 2.91015625 -4.5625 1.0625 C-3.5625 0.0625 -3.5625 0.0625 0 0 Z " fill="#FDF2DD" transform="translate(449.5625,96.9375)"/>
<path d="M0 0 C1.50433594 0.01353516 1.50433594 0.01353516 3.0390625 0.02734375 C3.80992188 0.03894531 4.58078125 0.05054687 5.375 0.0625 C5.375 0.7225 5.375 1.3825 5.375 2.0625 C1.70112505 2.91548376 -1.6697393 3.17039471 -5.4375 3.125 C-6.90123047 3.11146484 -6.90123047 3.11146484 -8.39453125 3.09765625 C-9.49861328 3.08025391 -9.49861328 3.08025391 -10.625 3.0625 C-6.58365069 0.36826713 -4.81510472 -0.05598959 0 0 Z " fill="#FEF6E0" transform="translate(100.625,72.9375)"/>
<path d="M0 0 C1.258125 -0.020625 2.51625 -0.04125 3.8125 -0.0625 C4.52019531 -0.07410156 5.22789063 -0.08570312 5.95703125 -0.09765625 C8 0 8 0 11 1 C11 1.66 11 2.32 11 3 C9.35333797 2.8864371 7.70763918 2.75882619 6.0625 2.625 C5.14597656 2.55539063 4.22945313 2.48578125 3.28515625 2.4140625 C2.15400391 2.20910156 2.15400391 2.20910156 1 2 C0.67 1.34 0.34 0.68 0 0 Z " fill="#FDF4E1" transform="translate(74,95)"/>
<path d="M0 0 C-0.33 0.99 -0.66 1.98 -1 3 C-3.64 3 -6.28 3 -9 3 C-9 2.34 -9 1.68 -9 1 C-5.846632 0.29925156 -3.27275026 0 0 0 Z " fill="#FDF1D7" transform="translate(400,97)"/>
<path d="M0 0 C0.66 0 1.32 0 2 0 C2 0.66 2 1.32 2 2 C2.99 2 3.98 2 5 2 C5 2.99 5 3.98 5 5 C3.35 4.67 1.7 4.34 0 4 C0 2.68 0 1.36 0 0 Z " fill="#FDF4E3" transform="translate(82,70)"/>
</svg>
