<?xml version="1.0" encoding="UTF-8"?>
<svg version="1.1" xmlns="http://www.w3.org/2000/svg" width="1100" height="538">
<path d="M0 0 C1.87173484 0.01151687 3.74348121 0.02129444 5.61523438 0.02929688 C10.76648951 0.06214803 15.91333621 0.16491732 21.0625 0.3125 C22.34398926 0.34682129 23.62547852 0.38114258 24.94580078 0.41650391 C26.01685059 0.47112793 27.08790039 0.52575195 28.19140625 0.58203125 C29.08029541 0.62561768 29.96918457 0.6692041 30.88500977 0.71411133 C33.80905443 1.51765808 34.5415569 2.74119619 36.0625 5.3125 C38.42197746 11.05731469 40.28753616 16.96290269 42.1953125 22.87109375 C42.83605839 25.22927302 42.83605839 25.22927302 44.0625 26.3125 C44.55368348 28.59427055 44.96137035 30.88519299 45.3671875 33.18359375 C45.93849358 35.67668127 45.93849358 35.67668127 49.0625 37.3125 C49.6875 39.4140625 49.6875 39.4140625 50.0625 41.9375 C50.64870451 45.37524172 51.3857124 48.45128036 52.6875 51.6875 C54.0625 55.3125 54.0625 55.3125 54.0625 59.3125 C58.41666235 60.3250959 61.14873064 60.63960611 65.0625 58.3125 C66.58262037 56.05822728 66.58262037 56.05822728 68.0625 53.3125 C69.58420317 51.48565318 71.15817532 49.71974256 72.7578125 47.9609375 C74.27878944 46.23163055 74.27878944 46.23163055 75.0625 43.3125 C76.0525 42.6525 77.0425 41.9925 78.0625 41.3125 C78.2275 40.631875 78.3925 39.95125 78.5625 39.25 C78.7275 38.610625 78.8925 37.97125 79.0625 37.3125 C80.0525 36.9825 81.0425 36.6525 82.0625 36.3125 C84.38386527 33.94405415 84.38386527 33.94405415 86.6875 31.0625 C87.48414063 30.10859375 88.28078125 29.1546875 89.1015625 28.171875 C91.01229097 25.38571317 91.71145194 23.62929895 92.0625 20.3125 C93.0525 20.3125 94.0425 20.3125 95.0625 20.3125 C95.3925 18.6625 95.7225 17.0125 96.0625 15.3125 C97.3825 15.3125 98.7025 15.3125 100.0625 15.3125 C100.124375 14.590625 100.18625 13.86875 100.25 13.125 C101.38739307 9.18787015 102.81431536 7.84608402 106.0625 5.3125 C113.92528055 1.78251294 121.18975956 0.15868431 129.78564453 0.18310547 C130.93135925 0.18047699 130.93135925 0.18047699 132.10021973 0.17779541 C134.63194041 0.17339065 137.16359106 0.1763188 139.6953125 0.1796875 C141.48762017 0.17901201 143.27992775 0.17803995 145.07223511 0.17678833 C148.85008609 0.17531152 152.62791348 0.17745782 156.40576172 0.18212891 C161.13522814 0.1877047 165.86463675 0.18453585 170.59410095 0.17867851 C190.1990458 0.15822449 209.78346588 0.27997327 229.37820435 0.95211792 C253.80164747 2.17752301 253.80164747 2.17752301 278.0625 0.3125 C280.97192465 1.09883099 281.76196203 1.84022605 283.375 4.375 C284.33920626 8.49479037 283.72991069 12.17274994 283.0625 16.3125 C282.0725 16.6425 281.0825 16.9725 280.0625 17.3125 C279.959375 18.055 279.85625 18.7975 279.75 19.5625 C279.0625 22.3125 279.0625 22.3125 277.6875 24.0625 C275.6184957 26.92727519 274.86322467 29.81351352 273.90625 33.19140625 C272.94071042 35.61866547 272.07293209 36.65680013 270.0625 38.3125 C267.92114258 38.94433594 267.92114258 38.94433594 265.45703125 39.296875 C264.55533203 39.42707031 263.65363281 39.55726562 262.72460938 39.69140625 C261.78423828 39.81386719 260.84386719 39.93632813 259.875 40.0625 C258.95396484 40.20042969 258.03292969 40.33835938 257.08398438 40.48046875 C253.03009701 41.03863351 249.61039165 41.38673561 245.52127075 40.83268738 C240.65559214 40.19961318 235.83536459 40.13513708 230.93383789 40.10375977 C229.46147423 40.08908409 229.46147423 40.08908409 227.95936584 40.07411194 C224.73464276 40.04437357 221.50996022 40.02283939 218.28515625 40.00390625 C217.17840483 39.99733442 216.0716534 39.9907626 214.93136406 39.98399162 C209.07901155 39.95150146 203.22667653 39.92701893 197.37426758 39.9074707 C192.54294411 39.88963032 187.71220126 39.85475022 182.88110352 39.80493164 C177.02980479 39.74468204 171.17904583 39.71399027 165.32745171 39.70429802 C163.10474792 39.69575664 160.88205808 39.67697131 158.65953255 39.6475544 C155.5459027 39.60854215 152.43437386 39.60761756 149.32055664 39.61547852 C148.41170715 39.59547791 147.50285767 39.57547729 146.56646729 39.55487061 C139.66917874 39.6326962 135.29373747 41.8680607 130.0625 46.3125 C128.40879082 48.03812517 126.88529551 49.78304778 125.40234375 51.65625 C124.0625 53.3125 124.0625 53.3125 121.375 55.875 C118.88262891 58.50209386 117.51924113 61.01566482 116.0625 64.3125 C115.4025 64.3125 114.7425 64.3125 114.0625 64.3125 C114.02125 65.034375 113.98 65.75625 113.9375 66.5 C112.66368706 70.59439875 110.52821675 71.83698804 107.0625 74.3125 C106.4025 74.3125 105.7425 74.3125 105.0625 74.3125 C104.794375 74.993125 104.52625 75.67375 104.25 76.375 C103.858125 77.344375 103.46625 78.31375 103.0625 79.3125 C102.629375 80.50875 102.19625 81.705 101.75 82.9375 C99.91999081 86.59751838 98.75717625 87.7020001 95.0625 89.3125 C94.4025 89.3125 93.7425 89.3125 93.0625 89.3125 C93.0315625 90.611875 93.0315625 90.611875 93 91.9375 C91.72150328 96.54008819 89.00777248 98.74306157 85.0625 101.3125 C84.4025 101.3125 83.7425 101.3125 83.0625 101.3125 C82.93875 102.116875 82.815 102.92125 82.6875 103.75 C82.48125 104.595625 82.275 105.44125 82.0625 106.3125 C81.0725 106.8075 81.0725 106.8075 80.0625 107.3125 C79.629375 108.2096875 79.629375 108.2096875 79.1875 109.125 C76.52469042 114.3026853 72.15566342 116.53129711 67.18359375 119.1640625 C64.86855042 120.37562312 64.86855042 120.37562312 62.0625 122.3125 C53.64557264 124.55318373 44.76230753 124.39811216 37.0625 120.3125 C35.06986409 119.62413487 33.07208663 118.94968601 31.0625 118.3125 C31.0625 117.6525 31.0625 116.9925 31.0625 116.3125 C29.5775 115.8175 29.5775 115.8175 28.0625 115.3125 C24.88531193 110.88026611 23.65039539 105.89321292 22.625 100.62890625 C21.66120152 96.65993058 20.08906533 92.85898933 18.0625 89.3125 C17.4025 88.9825 16.7425 88.6525 16.0625 88.3125 C15.28125 85.9140625 15.28125 85.9140625 14.5625 82.9375 C13.71452213 79.44419988 13.08081185 77.33996778 11.0625 74.3125 C10.753125 73.3225 10.44375 72.3325 10.125 71.3125 C9.34402313 68.34504137 9.34402313 68.34504137 7.5390625 66.94921875 C5.53200699 64.72446674 5.56677274 63.07830018 5.375 60.125 C5.30925781 59.22394531 5.24351562 58.32289062 5.17578125 57.39453125 C5.11970703 56.36392578 5.11970703 56.36392578 5.0625 55.3125 C2.01336772 54.30138907 2.01336772 54.30138907 -0.9375 55.3125 C-0.97488281 56.54226562 -1.01226562 57.77203125 -1.05078125 59.0390625 C-1.11647028 60.67190401 -1.18291659 62.30471518 -1.25 63.9375 C-1.27255859 64.74574219 -1.29511719 65.55398437 -1.31835938 66.38671875 C-1.54838862 71.53100924 -2.57823868 74.68495144 -4.9375 79.3125 C-5.6411189 83.09674405 -5.8338953 86.93277549 -6.109375 90.76757812 C-6.52228811 95.50416795 -7.35252911 98.24758395 -9.9375 102.3125 C-10.5647678 104.85781335 -11.07966677 107.29849589 -11.5 109.875 C-11.62221924 110.57810303 -11.74443848 111.28120605 -11.87036133 112.00561523 C-12.11686303 113.43137592 -12.35902103 114.85789489 -12.59667969 116.28515625 C-12.90513265 118.1199653 -13.23639792 119.95090344 -13.5703125 121.78125 C-14.33321065 126.03628755 -14.94379825 129.91570995 -14.875 134.25 C-14.9375 137.3125 -14.9375 137.3125 -16.41015625 139.61328125 C-18.21523895 142.80333789 -18.3319576 144.92128717 -18.4375 148.5625 C-18.70726018 153.39660247 -19.39558059 157.18644441 -21.125 161.66796875 C-22.25525511 165.34673177 -22.73434248 169.0763181 -23.3125 172.875 C-24.33273875 179.29833991 -25.67703489 184.22207415 -29.9375 189.3125 C-31.86261841 191.85640647 -32.91834413 193.2550324 -33.9375 196.3125 C-34.5975 196.3125 -35.2575 196.3125 -35.9375 196.3125 C-36.2675 197.3025 -36.5975 198.2925 -36.9375 199.3125 C-39.23046875 200.8125 -39.23046875 200.8125 -42.125 202.3125 C-43.06730469 202.8075 -44.00960938 203.3025 -44.98046875 203.8125 C-45.95628906 204.3075 -46.93210937 204.8025 -47.9375 205.3125 C-48.85660156 205.86292969 -49.77570313 206.41335938 -50.72265625 206.98046875 C-54.98106921 208.74489016 -58.62973311 208.71689046 -63.1875 208.625 C-64.0021875 208.62822266 -64.816875 208.63144531 -65.65625 208.63476562 C-71.6699953 208.5800047 -71.6699953 208.5800047 -73.9375 206.3125 C-74.08247985 203.73185871 -74.12427545 201.26306116 -74.0625 198.6875 C-74.05347656 197.98109375 -74.04445313 197.2746875 -74.03515625 196.546875 C-74.01157603 194.80193902 -73.97570461 193.05717705 -73.9375 191.3125 C-72.9475 191.3125 -71.9575 191.3125 -70.9375 191.3125 C-70.82792969 190.15234375 -70.71835937 188.9921875 -70.60546875 187.796875 C-69.79291888 179.64426212 -68.78717483 171.84795115 -66.59375 163.9296875 C-65.79410211 160.74061554 -65.45436873 157.62325371 -65.24609375 154.34765625 C-64.9375 152.3125 -64.9375 152.3125 -63.96875 150.109375 C-62.30794473 145.60506981 -62.19349945 140.92994568 -61.81445312 136.16992188 C-61.37295245 131.45660389 -60.42307127 127.54291121 -58.63500977 123.16333008 C-57.63568319 120.51163432 -57.25253872 117.86288427 -56.875 115.0625 C-56.14232582 109.67560032 -56.14232582 109.67560032 -54.90625 107.484375 C-53.12041083 103.48063879 -53.53628009 98.84764021 -53.45898438 94.51171875 C-53.29533304 89.95343021 -52.68192992 87.83405165 -49.9375 84.3125 C-49.46011749 81.62616407 -49.10927117 79.08021549 -48.875 76.375 C-48.18372538 68.90786528 -48.18372538 68.90786528 -46.9375 65.89453125 C-45.15738512 61.298219 -45.17693868 56.3215159 -44.81445312 51.4375 C-44.34258127 46.08111676 -43.18784554 42.18335236 -40.9375 37.3125 C-40.28408205 34.54663105 -40.28408205 34.54663105 -39.9375 31.875 C-39.26049089 27.73960268 -38.24007153 24.15158208 -36.66015625 20.28515625 C-35.60888288 17.41546409 -35.04002216 14.48468689 -34.46484375 11.48828125 C-32.89363995 5.00561074 -32.89363995 5.00561074 -30.07202148 2.96020508 C-20.29796297 -0.79110954 -10.29797447 -0.16122596 0 0 Z " fill="#FFFFFF" transform="translate(443.9375,55.6875)"/>
<path d="M0 0 C2.07863141 3.95669456 1.75380851 7.7575009 1.71711731 12.16189575 C1.72076797 13.13462433 1.72441864 14.10735291 1.72817993 15.10955811 C1.73628646 18.32493543 1.72267616 21.53980906 1.70808411 24.75515747 C1.7075656 26.98667399 1.70808294 29.21819097 1.70959473 31.44970703 C1.709505 36.12532371 1.69907371 40.80076796 1.6809845 45.47634888 C1.65827118 51.48020203 1.65775799 57.48380375 1.66450214 63.48768806 C1.66783724 68.09436289 1.66122115 72.70098 1.65137291 77.30764389 C1.64751465 79.52211073 1.64637527 81.73658398 1.64795876 83.95105362 C1.64832806 87.03968891 1.63574786 90.12799695 1.61946106 93.21658325 C1.62193848 94.13818237 1.62441589 95.05978149 1.62696838 96.00930786 C1.61988358 96.84769196 1.61279877 97.68607605 1.60549927 98.54986572 C1.60241996 99.64545901 1.60241996 99.64545901 1.59927845 100.7631855 C1.34480286 102.55984497 1.34480286 102.55984497 -0.65519714 104.55984497 C-3.19712483 104.73504793 -5.61607615 104.7936793 -8.15519714 104.74734497 C-8.87191589 104.74089966 -9.58863464 104.73445435 -10.32707214 104.72781372 C-15.80589643 104.64898172 -21.22207424 104.2912269 -26.65519714 103.55984497 C-28.43519168 99.79681469 -28.78617043 97.41222951 -28.21769714 93.30984497 C-27.36091685 85.33979575 -28.04180412 77.52451749 -28.65519714 69.55984497 C-31.04697079 70.48296771 -31.04697079 70.48296771 -32.03019714 73.87234497 C-33.42124751 77.20949535 -34.62060706 79.42743031 -37.65519714 81.55984497 C-45.01620877 83.46355487 -51.08277516 81.82948921 -57.81144714 78.48953247 C-61.54918196 76.17642609 -62.50279253 75.17962373 -63.59269714 70.74734497 C-63.61332214 69.69546997 -63.63394714 68.64359497 -63.65519714 67.55984497 C-64.64519714 67.55984497 -65.63519714 67.55984497 -66.65519714 67.55984497 C-66.64472351 68.50827271 -66.63424988 69.45670044 -66.62345886 70.43386841 C-66.58933006 73.95993488 -66.56427546 77.48582526 -66.54533386 81.01199341 C-66.53528971 82.5367612 -66.52165183 84.06150981 -66.50431824 85.58621216 C-66.47999977 87.78059635 -66.46869825 89.97472539 -66.45988464 92.16921997 C-66.44941101 93.48889771 -66.43893738 94.80857544 -66.42814636 96.16824341 C-66.63818018 99.30565176 -66.88173897 101.00899114 -68.65519714 103.55984497 C-72.26998428 105.36723854 -76.4875226 104.78740565 -80.46769714 104.80984497 C-81.37068542 104.83046997 -82.27367371 104.85109497 -83.20402527 104.87234497 C-84.0812323 104.87750122 -84.95843933 104.88265747 -85.86222839 104.88796997 C-86.66120544 104.89731567 -87.4601825 104.90666138 -88.28337097 104.91629028 C-91.55641089 104.4244078 -93.11208496 103.73116982 -95.65519714 101.55984497 C-96.4478315 98.55626932 -96.36564719 95.57802875 -96.34635925 92.4861145 C-96.36005554 91.55736511 -96.37375183 90.62861572 -96.38786316 89.67172241 C-96.4269234 86.59508255 -96.43024632 83.51952755 -96.43254089 80.44265747 C-96.45073301 78.30656282 -96.47082379 76.17048355 -96.49273682 74.03442383 C-96.53356858 69.55375213 -96.55790918 65.073401 -96.56950378 60.59255981 C-96.58474657 54.84988952 -96.63051845 49.1079962 -96.68736935 43.36560249 C-96.72941778 38.95274234 -96.76037737 34.53986357 -96.78746223 30.12688828 C-96.80081199 28.00977942 -96.81640826 25.89268351 -96.83428764 23.77560806 C-96.85660695 20.81445804 -96.86525431 17.85358845 -96.86979675 14.8923645 C-96.87848282 14.01738312 -96.88716888 13.14240173 -96.89611816 12.24090576 C-96.88782389 7.9353766 -96.80037386 4.42454585 -94.65519714 0.55984497 C-90.10302071 -2.45676696 -84.22688709 -1.73294166 -78.96769714 -1.69015503 C-78.00541199 -1.6978894 -77.04312683 -1.70562378 -76.05168152 -1.71359253 C-74.67399597 -1.70972534 -74.67399597 -1.70972534 -73.26847839 -1.70578003 C-72.0122467 -1.70239624 -72.0122467 -1.70239624 -70.7306366 -1.69894409 C-68.65519714 -1.44015503 -68.65519714 -1.44015503 -66.65519714 0.55984497 C-66.03019714 3.18484497 -66.03019714 3.18484497 -65.65519714 5.55984497 C-64.17019714 6.05484497 -64.17019714 6.05484497 -62.65519714 6.55984497 C-62.16019714 10.02484497 -62.16019714 10.02484497 -61.65519714 13.55984497 C-60.66519714 13.55984497 -59.67519714 13.55984497 -58.65519714 13.55984497 C-58.19946798 15.57807414 -57.74373881 17.5963033 -57.28800964 19.61453247 C-56.75045286 21.76704461 -56.75045286 21.76704461 -54.65519714 23.55984497 C-53.90616286 25.2858805 -53.16002175 27.01345938 -52.44816589 28.75515747 C-51.61462558 30.75791735 -51.61462558 30.75791735 -50.03019714 33.24734497 C-48.65519714 35.55984497 -48.65519714 35.55984497 -48.15519714 37.80984497 C-47.90769714 38.67609497 -47.90769714 38.67609497 -47.65519714 39.55984497 C-46.66519714 39.88984497 -45.67519714 40.21984497 -44.65519714 40.55984497 C-44.71707214 39.48734497 -44.77894714 38.41484497 -44.84269714 37.30984497 C-44.637621 33.20832218 -44.18289393 32.55563376 -41.65519714 29.55984497 C-40.96133985 27.94084462 -40.27152443 26.31979583 -39.61613464 24.68484497 C-37.98312438 21.07363528 -35.89099301 17.70695775 -33.86222839 14.30593872 C-32.48973744 11.18341075 -32.4321937 8.93463041 -32.65519714 5.55984497 C-31.33519714 5.55984497 -30.01519714 5.55984497 -28.65519714 5.55984497 C-28.56238464 4.66265747 -28.56238464 4.66265747 -28.46769714 3.74734497 C-27.65519714 1.55984497 -27.65519714 1.55984497 -25.59269714 -0.12765503 C-19.22808691 -2.97141705 -5.6006762 -4.87304006 0 0 Z " fill="#FFFFFF" transform="translate(273.6551971435547,373.4401550292969)"/>
<path d="M0 0 C0.93254608 0.00639496 1.86509216 0.01278992 2.82589722 0.01937866 C5.89019178 0.04205321 8.95433954 0.07269478 12.01855469 0.10424805 C14.15370522 0.1234902 16.28885744 0.14254569 18.42401123 0.16142273 C22.88916514 0.20232062 27.35425161 0.24753868 31.81933594 0.29541016 C37.54822618 0.35618873 43.27713762 0.40301074 49.00618362 0.44624043 C53.41049813 0.48153901 57.81468914 0.52578078 62.21889496 0.57259178 C64.33202985 0.593663 66.44519885 0.61155759 68.55838776 0.6262455 C71.50525634 0.64775005 74.4517297 0.68165283 77.3984375 0.71875 C78.27432526 0.72248123 79.15021301 0.72621246 80.05264282 0.73005676 C86.09791729 0.8251252 86.09791729 0.8251252 89.44042969 3.0534668 C89.35257631 4.47123861 89.24438322 5.88775718 89.12792969 7.3034668 C89.06992187 8.09237305 89.01191406 8.8812793 88.95214844 9.6940918 C88.44042969 12.0534668 88.44042969 12.0534668 87.01464844 13.91674805 C84.27556301 17.63456374 83.75157806 22.20696352 82.69824219 26.64331055 C80.64920441 32.19862104 76.75671652 35.37184005 71.63833618 38.22419739 C67.09440365 39.93862166 62.27375209 39.47037815 57.48730469 39.33862305 C55.78154266 39.31946083 55.78154266 39.31946083 54.0413208 39.2999115 C50.42377864 39.25780552 46.80746296 39.18935658 43.19042969 39.1159668 C39.55918507 39.04800104 35.92831765 38.98608188 32.29669189 38.94273376 C30.04056302 38.91539872 27.78455387 38.8736578 25.5289917 38.81617737 C24.51073303 38.80304001 23.49247437 38.78990265 22.44335938 38.77636719 C21.54736023 38.75764053 20.65136108 38.73891388 19.72821045 38.71961975 C16.95455618 39.12436845 16.13677758 39.87139776 14.44042969 42.0534668 C12.74907722 45.43617174 13.09339567 49.27352953 12.91699219 53.01049805 C12.44042969 56.0534668 12.44042969 56.0534668 10.96777344 58.4987793 C9.04064116 61.72216678 8.78748727 64.39813828 8.37792969 68.1159668 C7.64410381 74.66448916 7.64410381 74.66448916 6.44433594 76.95581055 C4.83760636 80.31306263 4.77738985 83.87810507 4.44042969 87.5534668 C3.67237717 95.9309285 3.67237717 95.9309285 1.44042969 100.0534668 C0.88327733 103.05383542 0.49458065 106.05508418 0.10058594 109.08081055 C-0.60946537 112.27814219 -1.78372716 114.32595385 -3.55957031 117.0534668 C-4.03394531 118.2084668 -4.50832031 119.3634668 -4.99707031 120.5534668 C-8.05678486 127.40722739 -11.76091955 130.33147441 -18.55957031 133.0534668 C-19.84427915 133.45165141 -21.1358423 133.82870497 -22.43457031 134.1784668 C-25.63106674 134.7981224 -25.63106674 134.7981224 -27.55957031 137.0534668 C-30.41234586 137.2524296 -33.14624403 137.33171611 -35.99707031 137.3034668 C-36.77373047 137.31120117 -37.55039062 137.31893555 -38.35058594 137.3269043 C-42.26009199 137.31343485 -44.23904063 137.26715325 -47.55957031 135.0534668 C-49.0793469 131.552814 -48.24466498 128.72487045 -47.37988281 125.1081543 C-47.11046875 123.94799805 -46.84105469 122.7878418 -46.56347656 121.5925293 C-46.2734375 120.38338867 -45.98339844 119.17424805 -45.68457031 117.9284668 C-43.94785226 110.63266494 -42.26851018 103.55353048 -41.86376953 96.04614258 C-41.55957031 94.0534668 -41.55957031 94.0534668 -39.55957031 91.0534668 C-39.05001516 89.13130143 -39.05001516 89.13130143 -38.77832031 87.03393555 C-38.6584375 86.25856445 -38.53855469 85.48319336 -38.41503906 84.68432617 C-38.29773438 83.87801758 -38.18042969 83.07170898 -38.05957031 82.2409668 C-36.81116606 73.78337094 -36.81116606 73.78337094 -35.49316406 69.9597168 C-33.96773515 65.21110127 -34.1528788 60.37072091 -34.00097656 55.41674805 C-33.50965318 51.67312478 -33.06125026 51.50942413 -30.55957031 49.0534668 C-30.08846882 45.83071981 -30.08846882 45.83071981 -30.05957031 42.2409668 C-29.92239111 36.90812526 -28.98410463 33.7602796 -26.55957031 29.0534668 C-25.92938698 25.66623136 -25.55977072 22.30529549 -25.18457031 18.8815918 C-24.55957031 16.0534668 -24.55957031 16.0534668 -21.55957031 14.0534668 C-20.87302607 11.99938391 -20.87302607 11.99938391 -20.55957031 9.6784668 C-19.27844084 3.30356654 -19.27844084 3.30356654 -16.55957031 1.0534668 C-11.02219993 -0.03059076 -5.62677193 -0.06356883 0 0 Z " fill="#FFFFFF" transform="translate(599.5595703125,126.946533203125)"/>
<path d="M0 0 C0.75474609 0.01482422 1.50949219 0.02964844 2.28710938 0.04492188 C6.17891611 0.24722725 7.90986844 0.47007363 10.90234375 3.12109375 C13.59830515 8.06711963 13.56310629 13.15354124 13.56689453 18.6953125 C13.56952301 19.66774399 13.56952301 19.66774399 13.57220459 20.65982056 C13.57658717 22.79407472 13.57369225 24.92824504 13.5703125 27.0625 C13.57098787 28.57063818 13.57195983 30.07877625 13.57321167 31.58691406 C13.5746849 34.75424227 13.57255094 37.92154227 13.56787109 41.08886719 C13.56225135 45.0802897 13.56551271 49.07164453 13.57129288 53.06306458 C13.58869264 67.04412554 13.60576971 81.0276189 13.0546875 95 C13.02432404 95.8859082 12.99396057 96.77181641 12.962677 97.68457031 C12.77747824 101.55353633 12.62851257 103.65098114 10.4375 106.9375 C7.59355312 107.13363427 4.95881671 107.1714019 2.125 107.0625 C-4.77065027 106.83425158 -4.77065027 106.83425158 -11.5625 107.9375 C-12.02140625 107.26203125 -12.4803125 106.5865625 -12.953125 105.890625 C-13.87351562 104.55257812 -13.87351562 104.55257812 -14.8125 103.1875 C-15.41578125 102.30578125 -16.0190625 101.4240625 -16.640625 100.515625 C-18.48777633 97.90040449 -18.48777633 97.90040449 -20.765625 95.7734375 C-22.5625 93.9375 -22.5625 93.9375 -23.0625 91.3125 C-23.31 90.136875 -23.31 90.136875 -23.5625 88.9375 C-25.53008273 87.57729849 -25.53008273 87.57729849 -27.5625 86.9375 C-27.5625 84.9575 -27.5625 82.9775 -27.5625 80.9375 C-28.5525 80.6075 -29.5425 80.2775 -30.5625 79.9375 C-32.31640625 77.21484375 -32.31640625 77.21484375 -34.125 73.875 C-35.21566011 71.86490168 -36.34911736 69.87598841 -37.5625 67.9375 C-38.2225 67.9375 -38.8825 67.9375 -39.5625 67.9375 C-39.57708252 68.97680664 -39.59166504 70.01611328 -39.60668945 71.08691406 C-39.66473181 74.94875215 -39.7419638 78.81001076 -39.82495117 82.67138672 C-39.8581727 84.34153833 -39.88621334 86.01180146 -39.90893555 87.68212891 C-39.94253334 90.08544363 -39.99484946 92.48773899 -40.05078125 94.890625 C-40.06036613 96.0080307 -40.06036613 96.0080307 -40.07014465 97.14801025 C-40.15903999 100.293607 -40.39033277 102.61321176 -41.87719727 105.41381836 C-44.60718607 107.88200033 -47.71030592 107.39726095 -51.1875 107.25 C-51.90301025 107.23380615 -52.61852051 107.2176123 -53.35571289 107.20092773 C-67.70028496 106.79971504 -67.70028496 106.79971504 -69.5625 104.9375 C-69.94045536 101.54299854 -69.98707765 98.1150629 -70.11328125 94.703125 C-70.15512039 93.60421936 -70.19695953 92.50531372 -70.24006653 91.37310791 C-70.73843039 76.77433848 -70.74972644 62.17020561 -70.74780273 47.56445312 C-70.74769928 43.44815215 -70.76158875 39.33201667 -70.77857494 35.21575546 C-70.78967409 32.00900487 -70.79172294 28.80229548 -70.79119301 25.59552765 C-70.79236708 24.07572078 -70.79675644 22.55591265 -70.80452538 21.03612518 C-70.81432606 18.92988433 -70.81145222 16.82402038 -70.80541992 14.71777344 C-70.80684494 13.52520935 -70.80826996 12.33264526 -70.80973816 11.10394287 C-70.56057419 7.91283566 -70.06284202 5.7546568 -68.5625 2.9375 C-63.13418516 -0.68137656 -54.93941736 -0.01447007 -48.5625 0.9375 C-43.87106555 2.97725411 -42.09089033 5.69693141 -40.125 10.3125 C-39.939375 11.17875 -39.75375 12.045 -39.5625 12.9375 C-37.9125 12.9375 -36.2625 12.9375 -34.5625 12.9375 C-34.4078125 14.0821875 -34.4078125 14.0821875 -34.25 15.25 C-33.81527699 17.93205559 -33.81527699 17.93205559 -32.15625 19.2890625 C-30.16159132 21.35216535 -29.4014557 23.32964207 -28.375 26 C-28.03082031 26.87785156 -27.68664062 27.75570313 -27.33203125 28.66015625 C-26.5625 30.9375 -26.5625 30.9375 -26.5625 32.9375 C-25.9025 32.9375 -25.2425 32.9375 -24.5625 32.9375 C-23.9025 34.9175 -23.2425 36.8975 -22.5625 38.9375 C-21.5725 38.9375 -20.5825 38.9375 -19.5625 38.9375 C-17.30985563 30.82053353 -17.60789069 23.30024615 -18.54467773 15.02050781 C-18.91093981 10.78686424 -19.07301959 7.91486857 -16.39453125 4.45703125 C-11.07022618 -0.27976429 -6.81846466 -0.38042936 0 0 Z " fill="#FFFFFF" transform="translate(656.5625,371.0625)"/>
<path d="M0 0 C5.8482422 0.32949289 11.66157961 0.42634277 17.51635742 0.36767578 C18.23847412 0.36152756 18.96059082 0.35537933 19.70458984 0.3490448 C23.32772635 0.31570166 26.94950164 0.2640792 30.57202148 0.18969727 C31.91283552 0.17425001 33.2536558 0.15933319 34.59448242 0.14501953 C36.38136475 0.11190674 36.38136475 0.11190674 38.2043457 0.078125 C41.14916992 0.40283203 41.14916992 0.40283203 43.02246094 1.69946289 C44.91226609 4.55648793 44.819676 7.7641054 44.96166992 11.09033203 C44.99953613 11.80842041 45.03740234 12.52650879 45.07641602 13.26635742 C45.27846098 18.41383242 44.918571 22.5861291 43.14916992 27.40283203 C41.04858882 29.50341313 36.46200406 28.63737377 33.55541992 28.68408203 C32.26263123 28.71169617 32.26263123 28.71169617 30.94372559 28.73986816 C27.24003954 28.81882694 23.53616367 28.8863806 19.83227539 28.95507812 C17.13572866 29.00668894 14.43934435 29.06398605 11.74291992 29.12158203 C10.47575134 29.14194519 10.47575134 29.14194519 9.1829834 29.16271973 C5.35471845 28.8765656 5.35471845 28.8765656 2.14916992 30.40283203 C2.23854795 31.92802479 2.39454138 33.44965132 2.58666992 34.96533203 C2.68850586 35.79162109 2.7903418 36.61791016 2.89526367 37.46923828 C3.02094727 38.42636719 3.02094727 38.42636719 3.14916992 39.40283203 C4.13836426 39.39759521 5.12755859 39.3923584 6.14672852 39.38696289 C9.81061908 39.3688868 13.47450569 39.35739045 17.13842773 39.34790039 C18.72534854 39.34286616 20.31226469 39.33603834 21.89916992 39.32739258 C24.17782742 39.31528721 26.45642368 39.3095947 28.73510742 39.30517578 C29.80237564 39.29743385 29.80237564 39.29743385 30.89120483 39.28953552 C35.92142651 39.28896032 35.92142651 39.28896032 38.14916992 40.40283203 C39.25429351 45.81793761 39.27646886 51.26820662 39.33666992 56.77783203 C39.34972168 57.49205322 39.36277344 58.20627441 39.3762207 58.94213867 C39.3792632 60.76394 39.27187284 62.58516503 39.14916992 64.40283203 C35.55494805 67.99705391 30.41303168 67.45727629 25.55541992 67.46533203 C23.09555029 67.44164147 20.63618483 67.4026269 18.17651367 67.36376953 C13.38369339 67.31761075 8.85739741 67.45260383 4.14916992 68.40283203 C2.46672062 70.01725176 2.46672062 70.01725176 2.14916992 72.40283203 C2.45720447 75.58805407 2.45720447 75.58805407 3.14916992 78.40283203 C6.94467387 79.64181023 10.67818722 79.47838884 14.61791992 79.39501953 C16.09056933 79.37750768 17.56322602 79.36059897 19.03588867 79.34423828 C21.34680408 79.31325559 23.65735391 79.27766832 25.96801758 79.23144531 C28.20553132 79.18906635 30.44261423 79.16566083 32.68041992 79.14501953 C33.71338196 79.11708817 33.71338196 79.11708817 34.76721191 79.08859253 C37.86375628 79.07207236 39.86800978 79.2404839 42.57568359 80.80395508 C45.50598165 83.78153801 45.10843952 87.4054344 45.14916992 91.40283203 C44.91975381 102.29334963 44.91975381 102.29334963 43.01196289 105.04017639 C40.28474864 107.03516668 38.15273512 106.79121383 34.79760742 106.80688477 C33.48614746 106.81956894 32.1746875 106.83225311 30.82348633 106.84532166 C29.39037926 106.84327036 27.95727327 106.84028246 26.52416992 106.83642578 C25.05590574 106.84098606 23.58764369 106.84629117 22.11938477 106.85231018 C19.04263638 106.86124596 15.96614749 106.85881266 12.8894043 106.84887695 C8.94463958 106.83738004 5.00076905 106.85760621 1.05612183 106.88679409 C-1.97564389 106.9051303 -5.00719423 106.904869 -8.03900146 106.89915657 C-9.49348201 106.89900307 -10.94797689 106.90507112 -12.40240479 106.91744804 C-14.43464262 106.93230643 -16.46702742 106.91907775 -18.49926758 106.90454102 C-19.65604004 106.90437485 -20.8128125 106.90420868 -22.00463867 106.90403748 C-24.85083008 106.40283203 -24.85083008 106.40283203 -26.72254944 104.96487427 C-28.46969367 100.9975481 -28.27618171 97.19803036 -28.25488281 92.90844727 C-28.26174606 91.94707855 -28.26860931 90.98570984 -28.27568054 89.99520874 C-28.29398403 86.81713094 -28.29010666 83.63954498 -28.28442383 80.46142578 C-28.28898321 78.2547235 -28.29428805 76.04802264 -28.30030823 73.84132385 C-28.30924579 69.21699249 -28.30680795 64.59283378 -28.296875 59.96850586 C-28.28537185 54.03410292 -28.30561453 48.1002938 -28.33479214 42.16596889 C-28.35310938 37.60985004 -28.35287083 33.05387476 -28.34715462 28.49772835 C-28.34700092 26.30919625 -28.35308482 24.12065471 -28.36544609 21.93215752 C-28.38027335 18.87699603 -28.36974052 15.82294816 -28.35253906 12.76782227 C-28.36220703 11.85916916 -28.371875 10.95051605 -28.38183594 10.014328 C-28.30951882 3.90088384 -28.30951882 3.90088384 -25.96180725 1.35169983 C-18.18382245 -2.14444376 -8.30988318 -0.51015335 0 0 Z " fill="#FFFFFF" transform="translate(712.850830078125,371.59716796875)"/>
<path d="M0 0 C12.03448121 0.13599632 21.13743037 2.51058598 30.50683594 10.3894043 C32.10300494 13.5817423 31.87971323 16.91612134 31.50683594 20.3894043 C29.54266326 24.42687035 26.45910357 25.52951365 22.50683594 27.3894043 C21.51683594 28.1319043 20.52683594 28.8744043 19.50683594 29.6394043 C15.77533008 31.81611605 14.63623451 31.26993782 10.50683594 30.3894043 C8.50778521 30.00937642 6.50777344 29.6343693 4.50683594 29.2644043 C3.51683594 29.07620117 2.52683594 28.88799805 1.50683594 28.6940918 C-3.88245096 28.14674235 -8.16319741 29.07825333 -12.49316406 32.3894043 C-12.49316406 33.3794043 -12.49316406 34.3694043 -12.49316406 35.3894043 C-11.22859375 35.67944336 -11.22859375 35.67944336 -9.93847656 35.9753418 C-8.84277344 36.23573242 -7.74707031 36.49612305 -6.61816406 36.7644043 C-4.98234375 37.14725586 -4.98234375 37.14725586 -3.31347656 37.5378418 C-0.49316406 38.3894043 -0.49316406 38.3894043 1.50683594 40.3894043 C4.35482329 40.8322316 7.14253158 41.18146505 10.00683594 41.4519043 C18.27451012 42.27324139 18.27451012 42.27324139 20.50683594 43.3894043 C20.50683594 44.0494043 20.50683594 44.7094043 20.50683594 45.3894043 C21.22871094 45.4306543 21.95058594 45.4719043 22.69433594 45.5144043 C27.57467125 47.03273084 29.77159307 51.28653999 32.50683594 55.3894043 C33.93970103 60.20491925 33.65381086 65.22458335 33.63183594 70.2019043 C33.63570312 71.0662207 33.63957031 71.93053711 33.64355469 72.82104492 C33.61831139 89.54472739 33.61831139 89.54472739 28.50683594 96.3894043 C24.09665627 100.09012028 18.8154834 102.28597794 13.50683594 104.3894043 C12.36734497 104.91679199 12.36734497 104.91679199 11.20483398 105.45483398 C8.01033114 106.56139057 5.4048567 106.64825538 2.02636719 106.6550293 C0.15561523 106.65889648 0.15561523 106.65889648 -1.75292969 106.6628418 C-3.04908203 106.65510742 -4.34523438 106.64737305 -5.68066406 106.6394043 C-6.95748047 106.64713867 -8.23429688 106.65487305 -9.54980469 106.6628418 C-27.13726218 106.62667222 -27.13726218 106.62667222 -33.49316406 102.3894043 C-35.48116224 101.68775788 -37.48014923 101.01567558 -39.49316406 100.3894043 C-39.49316406 99.7294043 -39.49316406 99.0694043 -39.49316406 98.3894043 C-40.81316406 98.3894043 -42.13316406 98.3894043 -43.49316406 98.3894043 C-44.68066406 96.3269043 -44.68066406 96.3269043 -45.49316406 93.3894043 C-44.09260217 89.04029106 -43.33370427 86.94976443 -39.49316406 84.3894043 C-38.32287704 82.70446752 -38.32287704 82.70446752 -37.36816406 80.8269043 C-35.49316406 77.3894043 -35.49316406 77.3894043 -34.49316406 76.3894043 C-27.23099096 75.8491568 -21.97128692 76.01538197 -15.49316406 79.3894043 C-6.77923812 81.12775229 -6.77923812 81.12775229 1.31933594 78.4519043 C2.04121094 77.7712793 2.76308594 77.0906543 3.50683594 76.3894043 C3.01183594 72.9244043 3.01183594 72.9244043 2.50683594 69.3894043 C-2.08857279 67.92559264 -6.9565803 68.0795559 -11.73730469 67.9597168 C-17.08986776 67.72116245 -17.08986776 67.72116245 -19.25488281 65.94018555 C-19.66351562 65.42842773 -20.07214844 64.91666992 -20.49316406 64.3894043 C-22.28929988 63.54113058 -22.28929988 63.54113058 -24.24316406 62.9519043 C-28.3241331 61.53112248 -31.79788712 59.62196745 -35.49316406 57.3894043 C-35.49316406 56.7294043 -35.49316406 56.0694043 -35.49316406 55.3894043 C-36.48316406 55.0594043 -37.47316406 54.7294043 -38.49316406 54.3894043 C-39.20339434 52.08115588 -39.50577771 49.80636447 -39.86816406 47.4206543 C-40.17753906 46.41518555 -40.17753906 46.41518555 -40.49316406 45.3894043 C-41.48316406 45.0594043 -42.47316406 44.7294043 -43.49316406 44.3894043 C-43.16900498 36.43073987 -42.65077172 29.71505406 -39.49316406 22.3894043 C-39.13651482 20.97842702 -38.80308123 19.56137719 -38.49316406 18.1394043 C-37.36003113 13.89015578 -36.1729487 11.52913983 -32.51269531 9.0456543 C-31.42021484 8.47331055 -31.42021484 8.47331055 -30.30566406 7.8894043 C-29.51804687 7.47174805 -28.73042969 7.0540918 -27.91894531 6.6237793 C-25.61548999 5.45165067 -23.30732883 4.29023218 -20.99316406 3.1394043 C-13.98586183 -0.36424682 -8.04932703 0.0309751 0 0 Z " fill="#FFFFFF" transform="translate(890.4931640625,371.610595703125)"/>
<path d="M0 0 C0.82234131 -0.00547852 1.64468262 -0.01095703 2.49194336 -0.01660156 C8.30445453 0.05445453 8.30445453 0.05445453 10.5625 2.3125 C12.88423505 2.88760868 15.20688348 3.2634944 17.56640625 3.65234375 C18.22511719 3.87019531 18.88382813 4.08804687 19.5625 4.3125 C20.0575 5.7975 20.0575 5.7975 20.5625 7.3125 C22.0165625 7.745625 22.0165625 7.745625 23.5 8.1875 C26.5625 9.3125 26.5625 9.3125 27.9375 11.625 C28.55901011 14.29749346 28.71865278 16.57982641 28.5625 19.3125 C27.6034375 19.6528125 27.6034375 19.6528125 26.625 20 C25.944375 20.433125 25.26375 20.86625 24.5625 21.3125 C24.21234951 22.97571482 23.88052943 24.64284549 23.5625 26.3125 C21.24402344 29.11066136 19.0030846 31.09817602 15.5625 32.3125 C12.4375 32.5625 12.4375 32.5625 9.5625 32.3125 C8.9025 31.6525 8.2425 30.9925 7.5625 30.3125 C0.70571507 27.51305723 -4.289604 26.77958191 -11.3125 29.375 C-12.364375 29.8390625 -12.364375 29.8390625 -13.4375 30.3125 C-13.48004356 32.31204746 -13.47830783 34.31291636 -13.4375 36.3125 C-11.87444509 37.87555491 -10.16071782 37.61889968 -8 37.8125 C-3.65667808 38.20291096 -3.65667808 38.20291096 -1.4375 39.3125 C-1.4375 39.9725 -1.4375 40.6325 -1.4375 41.3125 C-0.303125 41.39886719 0.83125 41.48523438 2 41.57421875 C18.4350941 43.01928246 18.4350941 43.01928246 23.5625 48.3125 C25.82237199 51.18160016 27.73074058 54.15690264 29.5625 57.3125 C30.11292969 58.0653125 30.66335938 58.818125 31.23046875 59.59375 C33.00847449 63.22275879 32.8560653 66.38595388 32.5625 70.3125 C32.48781494 71.43156738 32.48781494 71.43156738 32.41162109 72.57324219 C31.62690557 81.51250759 28.58575229 89.85777984 23.5625 97.3125 C21.4375 97.9375 21.4375 97.9375 19.5625 98.3125 C19.0675 99.7975 19.0675 99.7975 18.5625 101.3125 C16.92578125 102.19140625 16.92578125 102.19140625 14.875 102.875 C14.14667969 103.12121094 13.41835938 103.36742187 12.66796875 103.62109375 C11.97316406 103.84925781 11.27835938 104.07742188 10.5625 104.3125 C9.61375 104.68375 8.665 105.055 7.6875 105.4375 C-1.26983737 107.94555446 -10.26508178 107.22726293 -19.4375 106.5 C-20.66339844 106.41685547 -21.88929688 106.33371094 -23.15234375 106.24804688 C-24.31894531 106.15974609 -25.48554687 106.07144531 -26.6875 105.98046875 C-27.74453125 105.90078857 -28.8015625 105.8211084 -29.890625 105.73901367 C-32.4375 105.3125 -32.4375 105.3125 -34.4375 103.3125 C-35.38625 103.02375 -36.335 102.735 -37.3125 102.4375 C-40.68840393 101.22217458 -42.06416363 99.93135393 -44.4375 97.3125 C-45.4275 96.6525 -46.4175 95.9925 -47.4375 95.3125 C-48.4375 92 -48.4375 92 -48.4375 88.3125 C-46.3125 85.75 -46.3125 85.75 -43.4375 83.3125 C-42.54370386 82.24462147 -41.66835489 81.16102106 -40.8125 80.0625 C-38.27205343 77.12093029 -37.04643097 76.46110464 -33.23828125 76.109375 C-28.97760749 76.02911113 -25.49215087 76.0659885 -21.5625 77.8125 C-15.83034956 80.2541868 -9.07919157 80.37746527 -3.11328125 78.6328125 C-1.01344929 77.77495735 -1.01344929 77.77495735 1.5625 76.3125 C1.27452981 74.96863912 0.93034131 73.6367287 0.5625 72.3125 C0.36914062 71.61511719 0.17578125 70.91773438 -0.0234375 70.19921875 C-0.49007812 69.57660156 -0.95671875 68.95398438 -1.4375 68.3125 C-3.95812214 67.97129383 -6.16591882 67.85825799 -8.6875 67.875 C-20.32850793 67.51849495 -30.14399592 64.50794849 -38.66796875 56.27734375 C-44.82468633 49.44107677 -44.61850043 43.13491547 -44.625 34.25 C-44.63724609 33.36505859 -44.64949219 32.48011719 -44.66210938 31.56835938 C-44.67221671 27.07733548 -44.6754539 23.34081702 -42.4375 19.3125 C-41.7775 18.6525 -41.1175 17.9925 -40.4375 17.3125 C-39.73039322 15.66258418 -39.05806011 13.99687744 -38.4375 12.3125 C-37.7775 12.3125 -37.1175 12.3125 -36.4375 12.3125 C-36.1075 11.3225 -35.7775 10.3325 -35.4375 9.3125 C-34.468125 9.003125 -33.49875 8.69375 -32.5 8.375 C-31.489375 8.024375 -30.47875 7.67375 -29.4375 7.3125 C-29.07785156 6.34376953 -29.07785156 6.34376953 -28.7109375 5.35546875 C-27.4375 3.3125 -27.4375 3.3125 -24.19140625 2.265625 C-22.79840982 2.00778794 -21.4006221 1.77504821 -20 1.5625 C-19.25806396 1.44108643 -18.51612793 1.31967285 -17.75170898 1.19458008 C-11.83990983 0.32014825 -5.97180358 0.02974746 0 0 Z " fill="#FFFFFF" transform="translate(810.4375,371.6875)"/>
<path d="M0 0 C1.18488007 -0.00960754 2.36976013 -0.01921509 3.59054565 -0.02911377 C4.87180328 -0.03336365 6.15306091 -0.03761353 7.47314453 -0.04199219 C8.78880402 -0.04769226 10.1044635 -0.05339233 11.45999146 -0.05926514 C14.2457925 -0.06976438 17.03156477 -0.0756141 19.81738281 -0.07910156 C23.38063961 -0.08458475 26.943514 -0.10861301 30.50665092 -0.13707352 C33.91214145 -0.16021762 37.31757943 -0.16215056 40.72314453 -0.16699219 C42.0003537 -0.17933899 43.27756287 -0.19168579 44.59347534 -0.20440674 C45.78465973 -0.20140564 46.97584412 -0.19840454 48.203125 -0.1953125 C49.24886688 -0.19895813 50.29460876 -0.20260376 51.37203979 -0.20635986 C54.67242404 0.21788013 56.54638203 1.2310005 59.23095703 3.16113281 C61.84871334 6.65955405 61.74242711 10.87819209 61.98095703 15.09863281 C62.03638672 15.80181641 62.09181641 16.505 62.14892578 17.22949219 C62.40299903 21.33700971 62.4198054 24.60087636 60.23095703 28.16113281 C56.16146224 29.53700737 51.99202619 29.28657196 47.74658203 29.25878906 C46.52319122 29.25666664 46.52319122 29.25666664 45.27508545 29.25450134 C42.67700492 29.24891585 40.0790114 29.23636602 37.48095703 29.22363281 C35.71663536 29.21861594 33.95231234 29.21405336 32.18798828 29.20996094 C27.86894447 29.19895116 23.54996549 29.18169651 19.23095703 29.16113281 C19.38693359 29.85980469 19.54291016 30.55847656 19.70361328 31.27832031 C19.89826172 32.18839844 20.09291016 33.09847656 20.29345703 34.03613281 C20.58929688 35.39351563 20.58929688 35.39351563 20.89111328 36.77832031 C21.23095703 39.16113281 21.23095703 39.16113281 20.23095703 41.16113281 C31.78095703 41.16113281 43.33095703 41.16113281 55.23095703 41.16113281 C55.23095703 59.26113281 55.23095703 59.26113281 54.23095703 65.16113281 C51.40088701 67.99120283 48.61142851 67.51359207 44.81689453 67.57519531 C44.08725494 67.59456146 43.35761536 67.61392761 42.60586548 67.63388062 C40.27268201 67.69371704 37.9394493 67.74007704 35.60595703 67.78613281 C34.02520621 67.82430895 32.44447627 67.86336047 30.86376953 67.90332031 C26.98633473 67.99942159 23.10880254 68.08343693 19.23095703 68.16113281 C18.12829973 76.73629437 18.22595203 85.13946728 18.53369141 93.76660156 C18.55979492 95.30380859 18.55979492 95.30380859 18.58642578 96.87207031 C18.61373779 97.79294434 18.6410498 98.71381836 18.66918945 99.66259766 C18.08173154 103.01192594 16.93209013 104.14706665 14.23095703 106.16113281 C11.91259766 106.6628418 11.91259766 106.6628418 9.38720703 106.65722656 C8.47068359 106.65787109 7.55416016 106.65851563 6.60986328 106.65917969 C5.65982422 106.63919922 4.70978516 106.61921875 3.73095703 106.59863281 C2.78091797 106.60572266 1.83087891 106.6128125 0.85205078 106.62011719 C-7.14553958 106.54700279 -7.14553958 106.54700279 -10.76904297 103.16113281 C-11.40078735 100.9282074 -11.40078735 100.9282074 -11.58398438 98.26049805 C-11.65958588 97.24302994 -11.73518738 96.22556183 -11.81307983 95.17726135 C-11.87331329 94.05689987 -11.93354675 92.93653839 -11.99560547 91.78222656 C-12.07026031 90.59809677 -12.14491516 89.41396698 -12.22183228 88.19395447 C-13.05738377 73.47896434 -13.14341573 58.74448763 -13.13964844 44.00952148 C-13.13944093 39.96023156 -13.16728871 35.91161001 -13.20119286 31.86248112 C-13.22336338 28.70636286 -13.22748985 25.55041234 -13.22642899 22.39422417 C-13.22877869 20.89869204 -13.23756657 19.40315486 -13.25309372 17.90770149 C-13.27265362 15.83941066 -13.26696922 13.77266033 -13.25488281 11.7043457 C-13.25773285 10.53335831 -13.26058289 9.36237091 -13.26351929 8.15589905 C-12.66332681 4.52086922 -11.65869593 3.37619275 -8.76904297 1.16113281 C-5.6018733 0.10540959 -3.32722294 0.02175767 0 0 Z " fill="#FFFFFF" transform="translate(387.76904296875,371.8388671875)"/>
<path d="M0 0 C0.92425781 -0.00257813 1.84851563 -0.00515625 2.80078125 -0.0078125 C8.05717183 0.06738622 12.00410738 0.48311624 16.5 3.5 C17.1875 5.625 17.1875 5.625 17.5 7.5 C18.49 7.83 19.48 8.16 20.5 8.5 C20.54898438 9.11488281 20.59796875 9.72976563 20.6484375 10.36328125 C20.72320312 11.17152344 20.79796875 11.97976563 20.875 12.8125 C20.97941406 14.01326172 20.97941406 14.01326172 21.0859375 15.23828125 C21.39564426 17.77224441 21.39564426 17.77224441 23.5 20.5 C24.20812814 22.82108669 24.88024152 25.15377147 25.5 27.5 C28.51031744 28.43423645 29.36650268 28.54449911 32.5 27.5 C33.23360568 25.49264169 33.23360568 25.49264169 33.5625 23.125 C34.13170911 19.79648197 34.55951616 18.41072575 36.5 15.5 C36.809375 14.30375 37.11875 13.1075 37.4375 11.875 C37.9634375 10.204375 37.9634375 10.204375 38.5 8.5 C39.49 8.17 40.48 7.84 41.5 7.5 C42.21727778 5.85448038 42.88325228 4.18577711 43.5 2.5 C46.41694174 -0.41694174 48.90594656 0.20853853 52.89648438 0.17773438 C54.33991211 0.18256836 54.33991211 0.18256836 55.8125 0.1875 C57.23852539 0.16333008 57.23852539 0.16333008 58.69335938 0.13867188 C67.7940057 0.13231223 67.7940057 0.13231223 71.5 3.5 C72.3125 7.1875 72.3125 7.1875 72.5 10.5 C71.8503125 10.73976563 71.200625 10.97953125 70.53125 11.2265625 C68.29687809 12.29461419 68.29687809 12.29461419 68.03125 14.5234375 C68.0209375 15.29945313 68.010625 16.07546875 68 16.875 C67.7133087 21.25228667 67.7133087 21.25228667 65.5625 23.75 C64.881875 24.3275 64.20125 24.905 63.5 25.5 C62.24563813 28.13222962 62.24563813 28.13222962 61.5 30.5 C60.84 30.5 60.18 30.5 59.5 30.5 C58.84 33.14 58.18 35.78 57.5 38.5 C56.84 38.5 56.18 38.5 55.5 38.5 C55.31824219 39.34884766 55.31824219 39.34884766 55.1328125 40.21484375 C54.96523438 40.94832031 54.79765625 41.68179688 54.625 42.4375 C54.46257812 43.16839844 54.30015625 43.89929688 54.1328125 44.65234375 C53.5 46.5 53.5 46.5 51.5 47.5 C51.0359375 49.170625 51.0359375 49.170625 50.5625 50.875 C49.50849122 54.47102996 49.07315917 55.13269357 46.5 57.5 C42.96767327 62.93301359 43.18258405 67.57865432 43.375 73.8125 C43.40333075 75.77469102 43.42802676 77.73693765 43.44921875 79.69921875 C43.46130371 80.67294434 43.47338867 81.64666992 43.48583984 82.64990234 C43.50653803 86.81594722 43.39099665 90.96436826 43.1875 95.125 C43.16478027 95.81634033 43.14206055 96.50768066 43.11865234 97.2199707 C42.96270412 100.05516647 42.56769986 102.34731002 41.4140625 104.94921875 C38.44474839 107.35496916 35.93135937 106.84673437 32.1875 106.6875 C26.71433306 106.45669912 26.71433306 106.45669912 21.33203125 107.23828125 C18.5 107.5 18.5 107.5 15.86499023 105.93603516 C12.79215629 102.77089248 12.86222547 101.14560645 12.828125 96.78515625 C12.81537537 96.1335704 12.80262573 95.48198456 12.78948975 94.81065369 C12.75327739 92.72749617 12.75048323 90.64594321 12.75 88.5625 C12.73541561 87.19723859 12.71850913 85.8319999 12.69921875 84.46679688 C12.6897522 83.79578949 12.68028564 83.1247821 12.67053223 82.43344116 C12.66066284 81.76575714 12.65079346 81.09807312 12.640625 80.41015625 C12.63107788 79.74432526 12.62153076 79.07849426 12.61169434 78.39248657 C12.54261147 74.02792975 12.44822579 69.66856892 12.234375 65.30859375 C12.16814941 63.80317017 12.16814941 63.80317017 12.10058594 62.26733398 C11.35573912 58.83528573 9.75586481 57.14257663 7.5 54.5 C6.75 51.1875 6.75 51.1875 6.5 48.5 C5.015 48.005 5.015 48.005 3.5 47.5 C2.98627259 45.82934176 2.4841422 44.15351445 2.06347656 42.45703125 C1.13843483 39.24423466 -0.50502815 36.4033465 -2.125 33.5 C-2.84040615 32.1956208 -3.55523179 30.89092307 -4.26953125 29.5859375 C-4.63643066 28.91916992 -5.00333008 28.25240234 -5.38134766 27.56542969 C-6.51784662 25.4670488 -7.61341519 23.35157277 -8.69921875 21.2265625 C-9.0535498 20.53949219 -9.40788086 19.85242188 -9.77294922 19.14453125 C-10.45475627 17.81998735 -11.12981497 16.49194326 -11.79736328 15.16015625 C-13.70038071 11.31278979 -13.70038071 11.31278979 -17.5 9.5 C-17.26591848 6.33989954 -16.28119953 5.26160014 -14.1015625 2.88671875 C-9.80486414 -0.57021108 -5.29305748 -0.16240902 0 0 Z " fill="#FFFFFF" transform="translate(297.5,371.5)"/>
<path d="M0 0 C1.29524597 -0.0127597 2.59049194 -0.02551941 3.92498779 -0.03866577 C5.33703461 -0.04172414 6.74908344 -0.04395152 8.16113281 -0.04541016 C9.61598847 -0.0518414 11.07084283 -0.05857001 12.5256958 -0.06558228 C15.57542923 -0.07755091 18.62504944 -0.08126372 21.67480469 -0.08007812 C25.56632596 -0.07987537 29.45711339 -0.10713352 33.34846115 -0.14162254 C36.3546679 -0.16396102 39.36070029 -0.1679135 42.36698151 -0.16685867 C43.8005958 -0.16920588 45.23421555 -0.17797952 46.6677475 -0.19352341 C54.66289051 -0.27207334 60.86954928 -0.27681791 67.61425781 4.29052734 C68.62988281 6.56787109 68.62988281 6.56787109 68.61425781 9.29052734 C68.60910156 10.48806641 68.60394531 11.68560547 68.59863281 12.91943359 C68.52128906 14.21751953 68.44394531 15.51560547 68.36425781 16.85302734 C68.29722656 18.15369141 68.23019531 19.45435547 68.16113281 20.79443359 C67.59082841 24.44030816 67.1468901 25.70870428 64.61425781 28.29052734 C62.25415039 28.83642578 62.25415039 28.83642578 59.50878906 28.89990234 C58.52587891 28.93212891 57.54296875 28.96435547 56.53027344 28.99755859 C55.50611328 29.01173828 54.48195313 29.02591797 53.42675781 29.04052734 C52.39099609 29.07017578 51.35523438 29.09982422 50.28808594 29.13037109 C47.7300647 29.20109979 45.17295623 29.25377991 42.61425781 29.29052734 C42.61869904 30.19619446 42.62314026 31.10186157 42.62771606 32.03497314 C42.66778637 40.56907945 42.69823898 49.10315417 42.71788216 57.63733292 C42.72832038 62.02486432 42.7424803 66.41231801 42.76513672 70.79980469 C42.7868637 75.03378819 42.79882615 79.26769692 42.8040123 83.50173187 C42.80770831 85.11726814 42.81492566 86.7328003 42.82571793 88.34830475 C42.84023099 90.61071118 42.84223585 92.87280843 42.84130859 95.13525391 C42.84574982 96.42320862 42.85019104 97.71116333 42.85476685 99.03814697 C42.63001159 102.07749052 42.22609037 103.75165281 40.61425781 106.29052734 C36.86432302 106.34864507 33.11450429 106.38416328 29.36425781 106.41552734 C28.30078125 106.43228516 27.23730469 106.44904297 26.14160156 106.46630859 C25.11679687 106.47275391 24.09199219 106.47919922 23.03613281 106.48583984 C22.09350586 106.49631348 21.15087891 106.50678711 20.1796875 106.51757812 C17.47919175 106.27857346 15.88132916 105.75416916 13.61425781 104.29052734 C12.14774825 101.35750823 12.44887307 98.72897873 12.40893555 95.45410156 C12.39903595 94.75155243 12.38913635 94.0490033 12.37893677 93.32516479 C12.34730101 90.99854932 12.32255622 88.6719134 12.29785156 86.34521484 C12.27728382 84.73381005 12.2562874 83.12241068 12.23487854 81.51101685 C12.17963927 77.26630028 12.1302382 73.02153488 12.08203125 68.7767334 C12.03182975 64.44665166 11.97613664 60.11664099 11.92089844 55.78662109 C11.81329418 47.28798324 11.71185427 38.78928599 11.61425781 30.29052734 C9.25378788 29.11029238 7.9880204 29.22856965 5.36816406 29.33349609 C4.53091797 29.35476563 3.69367187 29.37603516 2.83105469 29.39794922 C1.06503332 29.45122875 -0.70067289 29.51628929 -2.46582031 29.59326172 C-8.75090297 29.72369772 -8.75090297 29.72369772 -11.46386719 27.87255859 C-12.89687429 23.8589243 -12.77794099 20.01775205 -12.69824219 15.79052734 C-12.70146484 14.93587891 -12.7046875 14.08123047 -12.70800781 13.20068359 C-12.64349758 5.68230899 -12.64349758 5.68230899 -10.38574219 2.29052734 C-6.96827506 0.05522991 -4.0236043 0.02691981 0 0 Z " fill="#FFFFFF" transform="translate(510.3857421875,371.70947265625)"/>
<path d="M0 0 C1.92392578 -0.05607422 1.92392578 -0.05607422 3.88671875 -0.11328125 C7.3125 0.3125 7.3125 0.3125 9.49525452 1.75244141 C12.2283162 5.60266313 11.86402022 9.08436297 11.81420898 13.69921875 C11.81961197 14.6492276 11.82501495 15.59923645 11.83058167 16.57803345 C11.84309121 19.71900566 11.82656277 22.85906526 11.80859375 26 C11.80874869 28.18188526 11.81023676 30.36377079 11.81300354 32.5456543 C11.81438854 37.11877608 11.80181238 41.69158462 11.77905273 46.26464844 C11.75066807 52.12938738 11.75340422 57.99360572 11.76614285 63.85838318 C11.77309462 68.36393691 11.76531643 72.86937011 11.75288582 77.37490845 C11.74836646 79.53748106 11.74803874 81.70006659 11.75195122 83.86264038 C11.75485846 86.88395759 11.7383793 89.90455495 11.71655273 92.92578125 C11.72105438 93.82148834 11.72555603 94.71719543 11.73019409 95.64004517 C11.65765535 101.67702391 11.65765535 101.67702391 9.92405701 104.86880493 C7.75815698 106.80910191 6.48483975 106.80190742 3.6015625 106.7734375 C2.22871094 106.76763672 2.22871094 106.76763672 0.828125 106.76171875 C-0.12578125 106.73722656 -1.0796875 106.71273437 -2.0625 106.6875 C-3.00867188 106.68621094 -3.95484375 106.68492187 -4.9296875 106.68359375 C-9.57376367 106.62489054 -13.49169805 106.54430955 -17.6875 104.3125 C-18.45448215 98.16797794 -18.84405526 92.17343273 -18.86450195 85.98486328 C-18.87107315 85.100793 -18.87764435 84.21672272 -18.88441467 83.30586243 C-18.90394062 80.41484469 -18.91575441 77.52387799 -18.92578125 74.6328125 C-18.93189454 73.1448649 -18.93189454 73.1448649 -18.93813133 71.62685776 C-18.95888882 66.39088913 -18.97324302 61.15494602 -18.98266602 55.91894531 C-18.99379769 50.50823593 -19.02830368 45.09793019 -19.06783772 39.68736458 C-19.0939075 35.52331757 -19.10234851 31.35936911 -19.10594749 27.19524765 C-19.11082691 25.19928082 -19.12247922 23.20331879 -19.14098549 21.20743179 C-19.16520461 18.42587539 -19.1644455 15.64539795 -19.1574707 12.86376953 C-19.17028076 12.03777756 -19.18309082 11.21178558 -19.19628906 10.36076355 C-19.14538237 4.81245143 -19.14538237 4.81245143 -16.86247253 2.3197937 C-11.64961813 -0.09443238 -5.65008969 0.10854571 0 0 Z " fill="#FFFFFF" transform="translate(477.6875,371.6875)"/>
<path d="M0 0 C1.65 0.33 3.3 0.66 5 1 C4.67 1.66 4.34 2.32 4 3 C2.35 2.67 0.7 2.34 -1 2 C-0.67 1.34 -0.34 0.68 0 0 Z " fill="#FFFFFF" transform="translate(391,481)"/>
<path d="M0 0 C0.99 0.495 0.99 0.495 2 1 C1.01 1.495 1.01 1.495 0 2 C0 1.34 0 0.68 0 0 Z " fill="#FFFFFF" transform="translate(407,481)"/>
</svg>
